<svg version="1.1" xmlns="http://www.w3.org/2000/svg" viewBox="0 0 1577.4026625989281 946.1838224033066" width="3154.8053251978563" height="1892.3676448066133">
  <!-- svg-source:excalidraw -->
  
  <defs>
    <style class="style-fonts">
      @font-face {
        font-family: "Virgil";
        src: url("https://excalidraw.com/Virgil.woff2");
      }
      @font-face {
        font-family: "Cascadia";
        src: url("https://excalidraw.com/Cascadia.woff2");
      }
    </style>
    
  </defs>
  <rect x="0" y="0" width="1577.4026625989281" height="946.1838224033066" fill="#ffffff"></rect><g stroke-linecap="round" transform="translate(10 507.83796529369397) rotate(0 586.6811746799116 214.17292855480633)"><path d="M32 0 C272.76 3.37, 513.21 3.98, 1141.36 0 M32 0 C336.35 4.43, 641.14 4.08, 1141.36 0 M1141.36 0 C1161.03 1.98, 1173.72 12.52, 1173.36 32 M1141.36 0 C1164.3 -0.86, 1172.92 12.81, 1173.36 32 M1173.36 32 C1171.03 142.1, 1172.95 251.76, 1173.36 396.35 M1173.36 32 C1175 128.64, 1174.67 223.92, 1173.36 396.35 M1173.36 396.35 C1171.45 416.92, 1163.37 426.89, 1141.36 428.35 M1173.36 396.35 C1175.06 417.54, 1161.3 428.62, 1141.36 428.35 M1141.36 428.35 C704.14 426.92, 267.14 426.77, 32 428.35 M1141.36 428.35 C878.36 425.13, 614.94 425.52, 32 428.35 M32 428.35 C12.3 429.98, -0.65 417.32, 0 396.35 M32 428.35 C9.16 430.37, -0.63 416.48, 0 396.35 M0 396.35 C-0.54 278.09, -0.36 159.28, 0 32 M0 396.35 C0.48 255.61, -0.32 114.51, 0 32 M0 32 C-0.56 11.07, 11.41 0.39, 32 0 M0 32 C-1.81 9.6, 9.68 2.29, 32 0" stroke="#1e1e1e" stroke-width="2" fill="none"></path></g><g transform="translate(32.52746470797376 10) rotate(0 173.97579956054688 29.832396989970675)"><text x="0" y="0" font-family="Virgil, Segoe UI Emoji" font-size="47.73183518395309px" fill="#1e1e1e" text-anchor="start" style="white-space: pre;" direction="ltr" dominant-baseline="text-before-edge">what Netlify is</text></g><g transform="translate(36.435920524673634 567.265200846482) rotate(0 116.31989288330078 12.5)"><text x="0" y="0" font-family="Virgil, Segoe UI Emoji" font-size="20px" fill="#1e1e1e" text-anchor="start" style="white-space: pre;" direction="ltr" dominant-baseline="text-before-edge">frontend cloud platform</text></g><g stroke-linecap="round" transform="translate(74.94638818072394 640.3356500167051) rotate(0 78.02055249673515 27.448049626918873)"><path d="M13.72 0 C58.92 0.36, 103.95 0.6, 142.32 0 M13.72 0 C48.73 1.64, 82.91 1.23, 142.32 0 M142.32 0 C150.82 -1.11, 154.28 5.61, 156.04 13.72 M142.32 0 C152.47 -1.18, 153.98 4.11, 156.04 13.72 M156.04 13.72 C154.56 19.49, 157.41 27.59, 156.04 41.17 M156.04 13.72 C156.16 23.76, 156.4 33.76, 156.04 41.17 M156.04 41.17 C155.29 52.05, 151.46 55.23, 142.32 54.9 M156.04 41.17 C154.97 50.72, 153.76 54.51, 142.32 54.9 M142.32 54.9 C93.2 54.88, 48.44 54.29, 13.72 54.9 M142.32 54.9 C115.99 54.47, 88.54 53.61, 13.72 54.9 M13.72 54.9 C4.45 53.1, 1.42 50.79, 0 41.17 M13.72 54.9 C3.7 56.74, -2.25 50.15, 0 41.17 M0 41.17 C-0.31 33.1, -1.82 26.78, 0 13.72 M0 41.17 C-0.28 31.82, 0.78 24.8, 0 13.72 M0 13.72 C1.36 5.74, 6.52 0.08, 13.72 0 M0 13.72 C-1.18 2.57, 5.69 -0.34, 13.72 0" stroke="#1e1e1e" stroke-width="2" fill="none"></path></g><g transform="translate(141.0769489172052 655.283699643624) rotate(0 11.889991760253906 12.5)"><text x="11.889991760253906" y="0" font-family="Virgil, Segoe UI Emoji" font-size="20px" fill="#1e1e1e" text-anchor="middle" style="white-space: pre;" direction="ltr" dominant-baseline="text-before-edge">CI</text></g><g stroke-linecap="round" transform="translate(421.2757817415729 748.3783666076095) rotate(0 92.66289739909257 25.728025380250187)"><path d="M12.86 0 C47.21 0.02, 81.39 0.95, 172.46 0 M12.86 0 C48.13 0.66, 82.85 1.58, 172.46 0 M172.46 0 C180.32 1.25, 184.88 2.79, 185.33 12.86 M172.46 0 C181.73 -1.6, 183.17 4.58, 185.33 12.86 M185.33 12.86 C186.07 23.48, 184.92 32.67, 185.33 38.59 M185.33 12.86 C184.76 20.15, 184.86 25.73, 185.33 38.59 M185.33 38.59 C184.79 46.59, 179.97 50.64, 172.46 51.46 M185.33 38.59 C185.58 49.42, 181.22 50, 172.46 51.46 M172.46 51.46 C113.69 52.83, 53.5 52.95, 12.86 51.46 M172.46 51.46 C132.19 49.47, 92.23 50.61, 12.86 51.46 M12.86 51.46 C3.07 52.1, -0.72 46.55, 0 38.59 M12.86 51.46 C6.44 51.34, 2.13 45.01, 0 38.59 M0 38.59 C-0.03 31.34, 0.96 21.41, 0 12.86 M0 38.59 C-0.76 29.2, 0.95 18.15, 0 12.86 M0 12.86 C0.79 4.82, 3.36 1.76, 12.86 0 M0 12.86 C-2.26 5.45, 5.27 -0.26, 12.86 0" stroke="#1e1e1e" stroke-width="2" fill="none"></path></g><g transform="translate(470.22872583256003 761.6063919878595) rotate(0 43.70995330810547 12.5)"><text x="43.70995330810547" y="0" font-family="Virgil, Segoe UI Emoji" font-size="20px" fill="#1e1e1e" text-anchor="middle" style="white-space: pre;" direction="ltr" dominant-baseline="text-before-edge">functions</text></g><g stroke-linecap="round" transform="translate(420.35111458767346 641.8188588907349) rotate(0 88.17749641063165 29.564082139708262)"><path d="M14.78 0 C45.38 -0.22, 73.8 -0.53, 161.57 0 M14.78 0 C45.85 -0.35, 77.38 -1.19, 161.57 0 M161.57 0 C171.07 -1.5, 174.93 5.07, 176.35 14.78 M161.57 0 C171.23 1.11, 177.3 3.38, 176.35 14.78 M176.35 14.78 C178.24 24.63, 178.47 36.32, 176.35 44.35 M176.35 14.78 C176.66 25.75, 175.69 37.59, 176.35 44.35 M176.35 44.35 C178.02 54.54, 172.67 61.1, 161.57 59.13 M176.35 44.35 C175.46 54.96, 171.51 59.82, 161.57 59.13 M161.57 59.13 C111.33 58.63, 61 59.56, 14.78 59.13 M161.57 59.13 C128.99 57.5, 95.46 58.9, 14.78 59.13 M14.78 59.13 C4.25 57.82, -1.67 53.13, 0 44.35 M14.78 59.13 C5.69 59.64, -1.74 53.39, 0 44.35 M0 44.35 C0.54 38.83, 0.03 31.1, 0 14.78 M0 44.35 C0.59 36.82, -0.74 27.3, 0 14.78 M0 14.78 C1.35 6.45, 3.29 0.28, 14.78 0 M0 14.78 C-0.76 7.19, 5.82 -0.1, 14.78 0" stroke="#1e1e1e" stroke-width="2" fill="none"></path></g><g transform="translate(436.02867203346136 658.8829410304431) rotate(0 72.49993896484375 12.5)"><text x="72.49993896484375" y="0" font-family="Virgil, Segoe UI Emoji" font-size="20px" fill="#1e1e1e" text-anchor="middle" style="white-space: pre;" direction="ltr" dominant-baseline="text-before-edge">Edge Functions</text></g><g stroke-linecap="round" transform="translate(425.0650706536512 842.3202735263299) rotate(0 112.4338530350368 29.965070877887797)"><path d="M14.98 0 C70.81 0.25, 129.51 -3.69, 209.89 0 M14.98 0 C56.69 -1.55, 96.33 -0.49, 209.89 0 M209.89 0 C221.21 0.26, 223.63 6.23, 224.87 14.98 M209.89 0 C219.38 1.66, 226.68 3.05, 224.87 14.98 M224.87 14.98 C225.1 23.94, 226.6 34.85, 224.87 44.95 M224.87 14.98 C223.59 23.24, 224.61 33.47, 224.87 44.95 M224.87 44.95 C226.25 55.1, 220.23 58.05, 209.89 59.93 M224.87 44.95 C225.8 54.98, 220.35 60.99, 209.89 59.93 M209.89 59.93 C161.68 58.25, 108.5 57.76, 14.98 59.93 M209.89 59.93 C164.91 57.61, 119.98 57.78, 14.98 59.93 M14.98 59.93 C6.39 60.65, -1.55 54.25, 0 44.95 M14.98 59.93 C5.59 58.75, -1.68 55.96, 0 44.95 M0 44.95 C-0.47 32.6, -1.1 20.96, 0 14.98 M0 44.95 C-0.67 34.5, 0.13 23.6, 0 14.98 M0 14.98 C-1.83 5.94, 6.46 -1.86, 14.98 0 M0 14.98 C2.21 5.83, 6.22 0.81, 14.98 0" stroke="#1e1e1e" stroke-width="2" fill="none"></path></g><g transform="translate(433.3690103586099 859.7853444042175) rotate(0 104.12991333007812 12.5)"><text x="104.12991333007812" y="0" font-family="Virgil, Segoe UI Emoji" font-size="20px" fill="#1e1e1e" text-anchor="middle" style="white-space: pre;" direction="ltr" dominant-baseline="text-before-edge">Environment variables</text></g><g stroke-linecap="round" transform="translate(703.531159318983 639.2697075212416) rotate(0 82.79506381444986 27.5172295985617)"><path d="M13.76 0 C43.91 0.05, 74.41 -2.47, 151.83 0 M13.76 0 C53.37 0.44, 92.49 -0.04, 151.83 0 M151.83 0 C162.5 0.07, 164.66 3.86, 165.59 13.76 M151.83 0 C163.14 1.93, 164.93 4.28, 165.59 13.76 M165.59 13.76 C163.87 21.82, 164.07 28.53, 165.59 41.28 M165.59 13.76 C165.44 23.05, 166.35 31.86, 165.59 41.28 M165.59 41.28 C164.95 49.11, 159.79 53.93, 151.83 55.03 M165.59 41.28 C166.28 51.48, 160.29 54.57, 151.83 55.03 M151.83 55.03 C116.84 55.91, 77.37 54.29, 13.76 55.03 M151.83 55.03 C110.04 56.77, 68.79 54.98, 13.76 55.03 M13.76 55.03 C4.67 55.42, 1.75 52.2, 0 41.28 M13.76 55.03 C5.52 56.72, -2.04 52.18, 0 41.28 M0 41.28 C-1.12 30.53, 1.6 22.08, 0 13.76 M0 41.28 C-0.19 35.05, 0.74 28.02, 0 13.76 M0 13.76 C-0.43 3.16, 4.22 1.36, 13.76 0 M0 13.76 C1.23 4.48, 5.25 -0.11, 13.76 0" stroke="#1e1e1e" stroke-width="2" fill="none"></path></g><g transform="translate(759.8662545665384 654.2869371198033) rotate(0 26.45996856689453 12.5)"><text x="26.45996856689453" y="0" font-family="Virgil, Segoe UI Emoji" font-size="20px" fill="#1e1e1e" text-anchor="middle" style="white-space: pre;" direction="ltr" dominant-baseline="text-before-edge">forms</text></g><g stroke-linecap="round" transform="translate(11.972449147588577 173.93576058095482) rotate(0 572.0986865484532 101.63898353539344)"><path d="M32 0 C256.79 0.02, 481.04 -0.48, 1112.2 0 M1112.2 0 C1135.38 -1.11, 1143.1 10.02, 1144.2 32 M1144.2 32 C1143.05 84.92, 1141.06 139.07, 1144.2 171.28 M1144.2 171.28 C1142.76 193.18, 1132.51 204.6, 1112.2 203.28 M1112.2 203.28 C690.56 202.38, 269.18 202.86, 32 203.28 M32 203.28 C11.73 204.7, -0.27 191.77, 0 171.28 M0 171.28 C1.28 122, 1.54 74.39, 0 32 M0 32 C1.86 10.92, 11.56 1.84, 32 0" stroke="#1e1e1e" stroke-width="2.5" fill="none" stroke-dasharray="8 10"></path></g><g transform="translate(34.901995868096265 194.42645516682728) rotate(0 49.729949951171875 12.5)"><text x="0" y="0" font-family="Virgil, Segoe UI Emoji" font-size="20px" fill="#1e1e1e" text-anchor="start" style="white-space: pre;" direction="ltr" dominant-baseline="text-before-edge">interfaces</text></g><g stroke-linecap="round" transform="translate(47.927813162661096 240.70554817229413) rotate(0 80.68480136075266 28.112578221953868)"><path d="M14.06 0 C44.72 -0.42, 73.81 -0.39, 147.31 0 M14.06 0 C59.37 0.76, 105.82 -0.22, 147.31 0 M147.31 0 C154.94 -1.42, 161.94 5.57, 161.37 14.06 M147.31 0 C157.76 0.43, 163.52 6.93, 161.37 14.06 M161.37 14.06 C162.49 25.03, 161.7 33.12, 161.37 42.17 M161.37 14.06 C161.97 24.32, 161.23 34.66, 161.37 42.17 M161.37 42.17 C163.07 50.21, 157.41 55.45, 147.31 56.23 M161.37 42.17 C159.92 50.88, 158.36 56.83, 147.31 56.23 M147.31 56.23 C112 53.97, 73.79 55.98, 14.06 56.23 M147.31 56.23 C120.81 54.98, 93.95 55.06, 14.06 56.23 M14.06 56.23 C6.65 56.99, 0.94 51.1, 0 42.17 M14.06 56.23 C2.46 55.54, -1.28 50.73, 0 42.17 M0 42.17 C-0.73 32.97, 1.92 24.61, 0 14.06 M0 42.17 C-0.33 34.72, -0.62 28.18, 0 14.06 M0 14.06 C0.44 2.84, 6.19 -0.68, 14.06 0 M0 14.06 C1.15 5.84, 5.72 1.57, 14.06 0" stroke="#1e1e1e" stroke-width="2" fill="none"></path></g><g transform="translate(73.80266274118719 256.3181263942481) rotate(0 54.80995178222656 12.5)"><text x="54.80995178222656" y="0" font-family="Virgil, Segoe UI Emoji" font-size="20px" fill="#1e1e1e" text-anchor="middle" style="white-space: pre;" direction="ltr" dominant-baseline="text-before-edge">Netlify CLI</text></g><g stroke-linecap="round" transform="translate(293.4933893087509 238.42825769224237) rotate(0 100.26346218526453 25.723378964244375)"><path d="M12.86 0 C51.54 1.63, 91.91 1.83, 187.67 0 M12.86 0 C61.68 -0.07, 112.91 0.5, 187.67 0 M187.67 0 C194.91 0.54, 201.49 3.48, 200.53 12.86 M187.67 0 C194.66 -2.2, 200.58 4.92, 200.53 12.86 M200.53 12.86 C200.56 22.14, 200.07 32.88, 200.53 38.59 M200.53 12.86 C200.91 21.37, 201.4 29.59, 200.53 38.59 M200.53 38.59 C202.4 47.29, 196.04 52.77, 187.67 51.45 M200.53 38.59 C199.56 48.9, 195.84 49.48, 187.67 51.45 M187.67 51.45 C149.13 49.25, 111.03 50.15, 12.86 51.45 M187.67 51.45 C147.65 50.3, 106.99 49.89, 12.86 51.45 M12.86 51.45 C4.65 51.03, 0.37 49.06, 0 38.59 M12.86 51.45 C3.68 53.23, 1.52 46.89, 0 38.59 M0 38.59 C0.62 31.39, -1.48 20.3, 0 12.86 M0 38.59 C1.16 33.63, -0.58 27.17, 0 12.86 M0 12.86 C-1.56 3.5, 5.29 0.25, 12.86 0 M0 12.86 C-1.37 3.94, 4.37 -0.3, 12.86 0" stroke="#1e1e1e" stroke-width="2" fill="none"></path></g><g transform="translate(305.56691771716 251.65163665648674) rotate(0 88.18993377685547 12.5)"><text x="88.18993377685547" y="0" font-family="Virgil, Segoe UI Emoji" font-size="20px" fill="#1e1e1e" text-anchor="middle" style="white-space: pre;" direction="ltr" dominant-baseline="text-before-edge">Netlify REST API</text></g><g stroke-linecap="round" transform="translate(78.00804227253718 747.7725711403866) rotate(0 77.1159287059981 25.781838773468507)"><path d="M12.89 0 C60.61 1.81, 106.03 1.35, 141.34 0 M12.89 0 C60.69 1.14, 106.64 0.46, 141.34 0 M141.34 0 C149.3 0, 154.64 3.45, 154.23 12.89 M141.34 0 C150.86 0.46, 155.49 4.64, 154.23 12.89 M154.23 12.89 C155.07 22.13, 156.11 30.04, 154.23 38.67 M154.23 12.89 C153.74 20.31, 154.69 27.51, 154.23 38.67 M154.23 38.67 C155.02 48.16, 151.6 49.74, 141.34 51.56 M154.23 38.67 C154.62 46.17, 150.4 49.93, 141.34 51.56 M141.34 51.56 C116.18 50.68, 91.12 52.19, 12.89 51.56 M141.34 51.56 C113.11 52.23, 84.28 52.62, 12.89 51.56 M12.89 51.56 C3.71 52.73, 1.02 46.34, 0 38.67 M12.89 51.56 C3.98 52.03, -1.36 47.39, 0 38.67 M0 38.67 C2.02 32.7, -1.29 23.83, 0 12.89 M0 38.67 C-0.66 32.42, -0.45 24.13, 0 12.89 M0 12.89 C-0.65 3.74, 2.67 1.74, 12.89 0 M0 12.89 C1.76 5.17, 4.77 0.8, 12.89 0" stroke="#1e1e1e" stroke-width="2" fill="none"></path></g><g transform="translate(140.88398074416028 761.0544099138551) rotate(0 14.239990234375 12.5)"><text x="14.239990234375" y="0" font-family="Virgil, Segoe UI Emoji" font-size="20px" fill="#1e1e1e" text-anchor="middle" style="white-space: pre;" direction="ltr" dominant-baseline="text-before-edge">CD</text></g><g stroke-linecap="round" transform="translate(579.5064723168923 244.34566587247218) rotate(0 89.71700891390878 25.29010826388037)"><path d="M12.65 0 C68.72 -1.57, 129.49 -0.22, 166.79 0 M12.65 0 C48.82 -0.52, 82.69 -0.04, 166.79 0 M166.79 0 C173.55 -1.77, 181.4 3.43, 179.43 12.65 M166.79 0 C173.47 2.04, 180.21 2.08, 179.43 12.65 M179.43 12.65 C181.49 17.74, 179.15 26.16, 179.43 37.94 M179.43 12.65 C179.95 20.16, 179.26 27.74, 179.43 37.94 M179.43 37.94 C180.07 46.08, 174.87 51.45, 166.79 50.58 M179.43 37.94 C180.47 45.78, 173.66 52.79, 166.79 50.58 M166.79 50.58 C130.57 49.7, 93.14 50.28, 12.65 50.58 M166.79 50.58 C125.75 50.57, 84.4 51.21, 12.65 50.58 M12.65 50.58 C4.11 51.03, 1.99 48.26, 0 37.94 M12.65 50.58 C2.69 49.32, -2 47.9, 0 37.94 M0 37.94 C-0.25 31.06, -1.48 27.44, 0 12.65 M0 37.94 C0.85 29.41, -0.24 20.99, 0 12.65 M0 12.65 C-0.02 2.3, 4.25 -0.15, 12.65 0 M0 12.65 C1 4.92, 5.96 -1.04, 12.65 0" stroke="#1e1e1e" stroke-width="2" fill="none"></path></g><g transform="translate(639.5035105276761 257.13577413635267) rotate(0 29.719970703125 12.5)"><text x="29.719970703125" y="0" font-family="Virgil, Segoe UI Emoji" font-size="20px" fill="#1e1e1e" text-anchor="middle" style="white-space: pre;" direction="ltr" dominant-baseline="text-before-edge">portal</text></g><g stroke-linecap="round" transform="translate(935.0571491567309 637.6994011236511) rotate(0 98.19711291813258 29.74320200166278)"><path d="M14.87 0 C68.2 0.02, 122.8 1.39, 181.52 0 M14.87 0 C51.58 -1.55, 88.33 0.14, 181.52 0 M181.52 0 C193 1.08, 195.29 4.94, 196.39 14.87 M181.52 0 C191.33 -0.02, 197.78 3.8, 196.39 14.87 M196.39 14.87 C197.07 22.25, 195.12 31.07, 196.39 44.61 M196.39 14.87 C195.78 26.37, 196.24 38.3, 196.39 44.61 M196.39 44.61 C195.04 55.29, 190.12 58.77, 181.52 59.49 M196.39 44.61 C198.61 55.25, 190.27 59.69, 181.52 59.49 M181.52 59.49 C122 58.47, 62.51 58.81, 14.87 59.49 M181.52 59.49 C134.35 58.62, 88.88 59.13, 14.87 59.49 M14.87 59.49 C6.94 60.13, 1.91 53.14, 0 44.61 M14.87 59.49 C6.57 59.63, -1.81 52.96, 0 44.61 M0 44.61 C1.74 36.03, -0.24 26.96, 0 14.87 M0 44.61 C0.04 33.88, 0.36 25.33, 0 14.87 M0 14.87 C1.1 6.93, 3.82 -1.62, 14.87 0 M0 14.87 C0.56 6.01, 5.78 1.97, 14.87 0" stroke="#1e1e1e" stroke-width="2" fill="none"></path></g><g transform="translate(957.1143160909768 654.942603125314) rotate(0 76.13994598388672 12.5)"><text x="76.13994598388672" y="0" font-family="Virgil, Segoe UI Emoji" font-size="20px" fill="#1e1e1e" text-anchor="middle" style="white-space: pre;" direction="ltr" dominant-baseline="text-before-edge">Domains &amp; DNS</text></g><g stroke-linecap="round" transform="translate(941.9192678540232 738.1624466160436) rotate(0 93.41634564161245 30)"><path d="M15 0 C67.27 -0.49, 122.2 -0.18, 171.83 0 M15 0 C59.41 0.22, 104.97 0.48, 171.83 0 M171.83 0 C182.73 -1.53, 185.05 4.29, 186.83 15 M171.83 0 C183.33 -1.14, 185.2 3.29, 186.83 15 M186.83 15 C185.22 24.95, 186.78 35.7, 186.83 45 M186.83 15 C186.22 22.16, 187.46 28.55, 186.83 45 M186.83 45 C187.6 56.21, 183.06 59.51, 171.83 60 M186.83 45 C184.82 56.66, 183.84 62.11, 171.83 60 M171.83 60 C119.9 58.95, 67.89 59.34, 15 60 M171.83 60 C120.4 57.93, 67.89 59.08, 15 60 M15 60 C5.74 59.42, 1.93 54.37, 0 45 M15 60 C7.08 60.18, 1.33 54.06, 0 45 M0 45 C-1.64 34.66, -0.68 25.1, 0 15 M0 45 C0.41 36.39, 0.8 28.92, 0 15 M0 15 C0.44 5.45, 5.24 1.88, 15 0 M0 15 C-0.8 5.81, 3.45 1.75, 15 0" stroke="#1e1e1e" stroke-width="2" fill="none"></path></g><g transform="translate(984.545650727081 743.1624466160436) rotate(0 50.78996276855469 25)"><text x="50.78996276855469" y="0" font-family="Virgil, Segoe UI Emoji" font-size="20px" fill="#1e1e1e" text-anchor="middle" style="white-space: pre;" direction="ltr" dominant-baseline="text-before-edge">HTTPS </text><text x="50.78996276855469" y="25" font-family="Virgil, Segoe UI Emoji" font-size="20px" fill="#1e1e1e" text-anchor="middle" style="white-space: pre;" direction="ltr" dominant-baseline="text-before-edge">(SSL/TLS)</text></g><g stroke-linecap="round" transform="translate(839.9015862297856 246.085490532447) rotate(0 108.8249543914211 22.613165269859678)"><path d="M11.31 0 C75.72 0.31, 140.73 -0.41, 206.34 0 M11.31 0 C62.87 -0.52, 113.61 -0.46, 206.34 0 M206.34 0 C214.56 0.07, 218.12 4.51, 217.65 11.31 M206.34 0 C214.28 0.78, 217.99 3.11, 217.65 11.31 M217.65 11.31 C218.39 20.12, 218.38 28.46, 217.65 33.92 M217.65 11.31 C217.39 19.33, 217.47 27.45, 217.65 33.92 M217.65 33.92 C216.91 41.01, 214.3 45.42, 206.34 45.23 M217.65 33.92 C218.23 42.28, 214.3 45.7, 206.34 45.23 M206.34 45.23 C155.91 44.81, 107.61 44.75, 11.31 45.23 M206.34 45.23 C130.62 44.78, 54.93 44.45, 11.31 45.23 M11.31 45.23 C4.57 45.36, -0.77 40.96, 0 33.92 M11.31 45.23 C3.26 44.33, -0.92 41.66, 0 33.92 M0 33.92 C0.22 29.26, 0.4 24.65, 0 11.31 M0 33.92 C0.44 25.43, -0.22 17.52, 0 11.31 M0 11.31 C-0.8 3.88, 4.24 -0.6, 11.31 0 M0 11.31 C0.79 4.37, 2.87 -0.31, 11.31 0" stroke="#1e1e1e" stroke-width="2" fill="none"></path></g><g transform="translate(891.7865915855622 256.1986558023066) rotate(0 56.93994903564453 12.5)"><text x="56.93994903564453" y="0" font-family="Virgil, Segoe UI Emoji" font-size="20px" fill="#1e1e1e" text-anchor="middle" style="white-space: pre;" direction="ltr" dominant-baseline="text-before-edge">Netlify SDK</text></g><g stroke-linecap="round" transform="translate(1258.8335075372083 168.68026928480208) rotate(0 154.2845775308599 205.76504475194042)"><path d="M32 0 C125.08 0.67, 217.93 3.14, 276.57 0 M276.57 0 C299.77 1.51, 310 11.3, 308.57 32 M308.57 32 C308.63 134.04, 308.51 239.29, 308.57 379.53 M308.57 379.53 C307.09 400.44, 299.49 411.36, 276.57 411.53 M276.57 411.53 C180.46 414.56, 79.8 413.25, 32 411.53 M32 411.53 C10.01 413.2, 1.29 399.21, 0 379.53 M0 379.53 C-1.43 295.05, -1.65 211.93, 0 32 M0 32 C-1.42 9.29, 12.35 0.32, 32 0" stroke="#1e1e1e" stroke-width="2.5" fill="none" stroke-dasharray="8 10"></path></g><g transform="translate(1278.4915522273368 210.78396531872295) rotate(0 52.00994873046875 12.5)"><text x="0" y="0" font-family="Virgil, Segoe UI Emoji" font-size="20px" fill="#1e1e1e" text-anchor="start" style="white-space: pre;" direction="ltr" dominant-baseline="text-before-edge">integration</text></g><g stroke-linecap="round" transform="translate(1284.2494638267644 261.7918950688802) rotate(0 124.36007927901028 23.399168793152967)"><path d="M11.7 0 C100.7 0.04, 190.52 -0.43, 237.02 0 M11.7 0 C75.19 -0.11, 138.38 -0.52, 237.02 0 M237.02 0 C245.18 -0.3, 248.54 3.78, 248.72 11.7 M237.02 0 C244.23 0.08, 249.08 4.06, 248.72 11.7 M248.72 11.7 C248.56 17.42, 248.6 21.31, 248.72 35.1 M248.72 11.7 C249.13 20.19, 248.51 28.34, 248.72 35.1 M248.72 35.1 C248.22 42.93, 244.23 46.56, 237.02 46.8 M248.72 35.1 C247.79 42.56, 244.64 47.16, 237.02 46.8 M237.02 46.8 C163.88 46.62, 91.85 47.29, 11.7 46.8 M237.02 46.8 C164.52 47.91, 92.59 47.26, 11.7 46.8 M11.7 46.8 C3.09 47.01, 0.66 42.06, 0 35.1 M11.7 46.8 C3.94 45.91, 0.76 42.88, 0 35.1 M0 35.1 C-0.13 26.36, 0.01 19.63, 0 11.7 M0 35.1 C-0.2 26.03, -0.06 16.99, 0 11.7 M0 11.7 C0.5 3.81, 4.19 -0.51, 11.7 0 M0 11.7 C-0.97 3.42, 3.88 -0.99, 11.7 0" stroke="#1e1e1e" stroke-width="2" fill="none"></path></g><g transform="translate(1317.479622146302 272.69106386203316) rotate(0 91.12992095947266 12.5)"><text x="91.12992095947266" y="0" font-family="Virgil, Segoe UI Emoji" font-size="20px" fill="#1e1e1e" text-anchor="middle" style="white-space: pre;" direction="ltr" dominant-baseline="text-before-edge">Sentry Integration</text></g><g stroke-linecap="round" transform="translate(1293.572178670849 353.7372400667525) rotate(0 124.40623975174844 21.775261583468478)"><path d="M10.89 0 C92.22 0.81, 174.91 0.92, 237.92 0 M10.89 0 C71.36 -0.06, 131.86 -0.07, 237.92 0 M237.92 0 C244.84 -0.51, 249.4 3.3, 248.81 10.89 M237.92 0 C244.84 0.01, 249.22 3.47, 248.81 10.89 M248.81 10.89 C248.82 16.09, 248.24 22.79, 248.81 32.66 M248.81 10.89 C249.02 17.51, 249 23.67, 248.81 32.66 M248.81 32.66 C249.36 40.34, 245.74 44.1, 237.92 43.55 M248.81 32.66 C248.42 40.11, 245.13 43.23, 237.92 43.55 M237.92 43.55 C183.43 42.98, 128.26 42.49, 10.89 43.55 M237.92 43.55 C155.3 43.33, 73.17 42.89, 10.89 43.55 M10.89 43.55 C4.2 43.75, 0.32 39.9, 0 32.66 M10.89 43.55 C3.14 43.01, -0.65 39.2, 0 32.66 M0 32.66 C-0.49 23.81, 0.21 15.82, 0 10.89 M0 32.66 C-0.2 28.52, -0.26 23.68, 0 10.89 M0 10.89 C-0.19 3.08, 3.72 -0.38, 10.89 0 M0 10.89 C-0.68 4.09, 3.15 -0.07, 10.89 0" stroke="#1e1e1e" stroke-width="2" fill="none"></path></g><g transform="translate(1333.1484852560936 363.0125016502209) rotate(0 84.8299331665039 12.5)"><text x="84.8299331665039" y="0" font-family="Virgil, Segoe UI Emoji" font-size="20px" fill="#1e1e1e" text-anchor="middle" style="white-space: pre;" direction="ltr" dominant-baseline="text-before-edge">Email Integration</text></g><g transform="translate(1389.161528566604 431.170279072968) rotate(0 8.219993591308594 12.5)"><text x="0" y="0" font-family="Virgil, Segoe UI Emoji" font-size="20px" fill="#1e1e1e" text-anchor="start" style="white-space: pre;" direction="ltr" dominant-baseline="text-before-edge">...</text></g><g stroke-linecap="round"><g transform="translate(1066.2122929726354 270.1164504274693) rotate(0 94.93070970305729 0.5956726178452527)"><path d="M-0.1 -0.11 C31.5 0.06, 158.04 0.89, 189.7 1.11 M0.12 0.16 C31.76 0.42, 158.36 1.15, 189.96 1.3" stroke="#1e1e1e" stroke-width="2" fill="none"></path></g><g transform="translate(1066.2122929726354 270.1164504274693) rotate(0 94.93070970305729 0.5956726178452527)"><path d="M161.72 11.41 C171.7 7.53, 182.08 4.17, 189.96 1.3 M161.72 11.41 C172.63 7.47, 183.3 3.6, 189.96 1.3" stroke="#1e1e1e" stroke-width="2" fill="none"></path></g><g transform="translate(1066.2122929726354 270.1164504274693) rotate(0 94.93070970305729 0.5956726178452527)"><path d="M161.83 -9.11 C171.79 -5.58, 182.14 -1.53, 189.96 1.3 M161.83 -9.11 C172.68 -5.23, 183.31 -1.27, 189.96 1.3" stroke="#1e1e1e" stroke-width="2" fill="none"></path></g></g><mask></mask><g stroke-linecap="round" transform="translate(77.97487961712307 834.6795005389042) rotate(0 88.21648986260237 30)"><path d="M15 0 C54.86 0.87, 91.01 -0.09, 161.43 0 M15 0 C62.21 0.29, 107.89 0.78, 161.43 0 M161.43 0 C171.94 0.76, 175.2 6.43, 176.43 15 M161.43 0 C172.73 -1.29, 177.4 4.14, 176.43 15 M176.43 15 C176.26 22.11, 176.27 28.23, 176.43 45 M176.43 15 C175.7 23.52, 175.61 31.12, 176.43 45 M176.43 45 C177.75 53.41, 173.41 61.54, 161.43 60 M176.43 45 C178.63 56.89, 173.26 61.42, 161.43 60 M161.43 60 C129.14 59.96, 97.24 58.58, 15 60 M161.43 60 C120.97 58.41, 79.93 58.28, 15 60 M15 60 C6.18 60.48, 0.21 56.29, 0 45 M15 60 C4.93 57.96, 0.75 54.49, 0 45 M0 45 C-0.07 33.38, 0.53 22.49, 0 15 M0 45 C0.63 34.52, -0.7 23.38, 0 15 M0 15 C1.72 4.99, 3.03 1.86, 15 0 M0 15 C1.79 6.26, 6.18 1.25, 15 0" stroke="#1e1e1e" stroke-width="2" fill="none"></path></g><g transform="translate(89.34144729954966 839.6795005389042) rotate(0 76.84992218017578 25)"><text x="76.84992218017578" y="0" font-family="Virgil, Segoe UI Emoji" font-size="20px" fill="#1e1e1e" text-anchor="middle" style="white-space: pre;" direction="ltr" dominant-baseline="text-before-edge">Deploy Previews</text><text x="76.84992218017578" y="25" font-family="Virgil, Segoe UI Emoji" font-size="20px" fill="#1e1e1e" text-anchor="middle" style="white-space: pre;" direction="ltr" dominant-baseline="text-before-edge"></text></g><g stroke-linecap="round"><g transform="translate(549.1765240279453 505.57160755718564) rotate(0 -0.7207446780885363 -61.47626182114334)"><path d="M-0.1 -0.11 C-0.33 -20.58, -1.25 -102.39, -1.48 -122.87 M0.13 0.16 C-0.12 -20.36, -1.29 -102.61, -1.57 -123.12" stroke="#1e1e1e" stroke-width="2" fill="none"></path></g><g transform="translate(549.1765240279453 505.57160755718564) rotate(0 -0.7207446780885363 -61.47626182114334)"><path d="M9.08 -95.07 C6.21 -101.99, 3.81 -109.03, -1.57 -123.12 M9.08 -95.07 C6.5 -101.71, 4.28 -108.26, -1.57 -123.12" stroke="#1e1e1e" stroke-width="2" fill="none"></path></g><g transform="translate(549.1765240279453 505.57160755718564) rotate(0 -0.7207446780885363 -61.47626182114334)"><path d="M-11.43 -94.79 C-9.17 -101.76, -6.42 -108.87, -1.57 -123.12 M-11.43 -94.79 C-9.24 -101.47, -6.69 -108.08, -1.57 -123.12" stroke="#1e1e1e" stroke-width="2" fill="none"></path></g></g><mask></mask></svg>