<svg version="1.1" xmlns="http://www.w3.org/2000/svg" viewBox="0 0 1160.1167602539062 781.3098754882812" width="2320.2335205078125" height="1562.6197509765625">
  <!-- svg-source:excalidraw -->
  
  <defs>
    <style class="style-fonts">
      @font-face {
        font-family: "Virgil";
        src: url("https://excalidraw.com/Virgil.woff2");
      }
      @font-face {
        font-family: "Cascadia";
        src: url("https://excalidraw.com/Cascadia.woff2");
      }
    </style>
    
  </defs>
  <rect x="0" y="0" width="1160.1167602539062" height="781.3098754882812" fill="#ffffff"></rect><g transform="translate(161.283447265625 10) rotate(0 128.06317138671875 37.029261504490975)"><text x="0" y="0" font-family="Virgil, Segoe UI Emoji" font-size="19.748939469061856px" fill="#1e1e1e" text-anchor="start" style="white-space: pre;" direction="ltr" dominant-baseline="text-before-edge">how to configurate Netlify</text><text x="0" y="24.68617433632732" font-family="Virgil, Segoe UI Emoji" font-size="19.748939469061856px" fill="#1e1e1e" text-anchor="start" style="white-space: pre;" direction="ltr" dominant-baseline="text-before-edge"></text><text x="0" y="49.37234867265464" font-family="Virgil, Segoe UI Emoji" font-size="19.748939469061856px" fill="#1e1e1e" text-anchor="start" style="white-space: pre;" direction="ltr" dominant-baseline="text-before-edge"></text></g><g stroke-linecap="round" transform="translate(10 239.50796508789062) rotate(0 65.45249938964844 40.457916259765625)"><path d="M8.78 19.56 C8.78 19.56, 8.78 19.56, 8.78 19.56 M8.78 19.56 C8.78 19.56, 8.78 19.56, 8.78 19.56 M1.04 40.65 C10.78 29.58, 22.61 13.69, 30.56 6.69 M1.04 40.65 C7.03 33.13, 12.68 26.66, 30.56 6.69 M4.45 48.92 C17.82 33.56, 30.45 20.16, 43.82 3.64 M4.45 48.92 C14.18 37.67, 23.52 27.07, 43.82 3.64 M7.87 57.19 C27.87 35.06, 44.35 16.85, 55.76 2.09 M7.87 57.19 C26.39 35.43, 45.92 13.16, 55.76 2.09 M13.25 63.19 C28.72 47.63, 41.5 30.96, 68.36 -0.2 M13.25 63.19 C29.05 43.41, 46.01 25.95, 68.36 -0.2 M19.94 67.68 C43.17 42.59, 64.03 14.47, 77.02 2.02 M19.94 67.68 C33.79 51.68, 46.34 35.65, 77.02 2.02 M27.29 71.42 C42.43 53, 62.67 34.17, 86.34 3.5 M27.29 71.42 C47.12 47.86, 69.08 22.58, 86.34 3.5 M34.64 75.16 C47.75 60.72, 63.01 44.13, 95 5.73 M34.64 75.16 C55.07 51.07, 76.8 28.9, 95 5.73 M43.3 77.39 C61.84 55.76, 81.65 32.64, 103 8.71 M43.3 77.39 C66.37 51.04, 89.82 23.04, 103 8.71 M52.62 78.87 C69.93 60.64, 84.05 40.14, 109.7 13.21 M52.62 78.87 C71.42 58.55, 87.38 37.52, 109.7 13.21 M61.28 81.1 C76.41 62, 95.97 43.03, 116.39 17.7 M61.28 81.1 C76.98 64.21, 91.98 45.46, 116.39 17.7 M72.57 80.31 C87.94 63.06, 102.69 45.97, 123.08 22.2 M72.57 80.31 C89.79 60.22, 107.4 40.69, 123.08 22.2 M84.51 78.76 C93.83 67.62, 101.95 57.58, 126.5 30.46 M84.51 78.76 C101.1 60.25, 117.32 41.53, 126.5 30.46 M96.45 77.22 C108.81 65.23, 119.66 49.88, 130.57 37.98 M96.45 77.22 C104.3 68.68, 112.2 58.79, 130.57 37.98 M118.89 63.6 C120.23 62.53, 120.83 60.09, 122.83 59.07 M118.89 63.6 C120.52 61.94, 122.1 60.24, 122.83 59.07" stroke="#ffc9c9" stroke-width="1" fill="none"></path><path d="M34.36 4.26 C43.03 0.78, 57.01 -0.44, 68.02 -0.04 C79.03 0.37, 91.37 3.16, 100.43 6.69 C109.49 10.22, 117.2 15.52, 122.37 21.15 C127.55 26.78, 131.75 33.75, 131.48 40.49 C131.2 47.23, 126.67 55.55, 120.73 61.59 C114.79 67.63, 105.4 73.47, 95.85 76.73 C86.3 79.99, 74.07 81.55, 63.42 81.16 C52.76 80.77, 41.12 77.8, 31.93 74.38 C22.73 70.97, 13.55 66.6, 8.23 60.68 C2.91 54.76, -0.11 45.74, 0.01 38.86 C0.13 31.97, 2.49 25.2, 8.95 19.36 C15.41 13.52, 33.11 6.5, 38.76 3.8 C44.41 1.09, 42.69 2.57, 42.86 3.11 M84.11 2.72 C94.4 4.02, 106.46 6.81, 114.24 11.79 C122.01 16.77, 128.3 25.79, 130.77 32.59 C133.25 39.4, 132.71 46.21, 129.09 52.62 C125.47 59.04, 117.53 66.42, 109.04 71.09 C100.55 75.76, 88.89 79.35, 78.13 80.64 C67.38 81.94, 54.52 81.11, 44.5 78.86 C34.48 76.61, 25.08 72.13, 18.03 67.13 C10.99 62.13, 4.5 55.57, 2.22 48.84 C-0.06 42.11, 0.94 32.91, 4.38 26.76 C7.81 20.6, 15.17 15.99, 22.82 11.92 C30.46 7.86, 40 4.18, 50.25 2.37 C60.51 0.56, 78.35 0.97, 84.36 1.06 C90.36 1.15, 86.69 2.33, 86.3 2.93" stroke="#1e1e1e" stroke-width="2" fill="none"></path></g><g transform="translate(37.23862453665481 269.85781440769847) rotate(0 38.431968688964844 10)"><text x="38.431968688964844" y="0" font-family="Virgil, Segoe UI Emoji" font-size="16px" fill="#1e1e1e" text-anchor="middle" style="white-space: pre;" direction="ltr" dominant-baseline="text-before-edge">repository</text></g><g stroke-linecap="round" transform="translate(446.70892333984375 260.4142761230469) rotate(0 33.6939697265625 19.591415405273438)"><path d="M9.8 0 C29.47 -1.7, 45.73 1.01, 57.59 0 C66.33 0.96, 68.34 2.59, 67.39 9.8 C66.49 16.45, 68.2 24.4, 67.39 29.39 C68.48 35.78, 64.83 39.11, 57.59 39.18 C45.52 37.78, 37.45 40.88, 9.8 39.18 C5.5 37.88, 1.23 36.8, 0 29.39 C2.21 25.79, 2.23 19.09, 0 9.8 C-0.03 2.04, 2.9 -0.84, 9.8 0" stroke="none" stroke-width="0" fill="#ffec99"></path><path d="M9.8 0 C24.87 -0.41, 40.74 0.52, 57.59 0 M9.8 0 C24.09 -0.07, 39.2 -0.01, 57.59 0 M57.59 0 C63.72 -0.49, 67.74 3.46, 67.39 9.8 M57.59 0 C63.43 0.69, 67.79 3.89, 67.39 9.8 M67.39 9.8 C66.79 15.86, 66.88 21.28, 67.39 29.39 M67.39 9.8 C67.3 17.16, 67.05 24.28, 67.39 29.39 M67.39 29.39 C67.97 35.42, 64.74 38.79, 57.59 39.18 M67.39 29.39 C66.97 36.63, 64.25 38.56, 57.59 39.18 M57.59 39.18 C47.04 39.14, 35.1 39.69, 9.8 39.18 M57.59 39.18 C47.41 39.44, 36.51 39.1, 9.8 39.18 M9.8 39.18 C2.71 39.83, 0.48 36.12, 0 29.39 M9.8 39.18 C3.14 38.74, 0.58 35.78, 0 29.39 M0 29.39 C0.69 25.2, -0.06 20.63, 0 9.8 M0 29.39 C0.02 22.9, -0.12 16.27, 0 9.8 M0 9.8 C0.21 2.85, 2.74 0.18, 9.8 0 M0 9.8 C0.05 2.93, 3.35 -0.27, 9.8 0" stroke="#1e1e1e" stroke-width="2" fill="none"></path></g><g transform="translate(463.3869094848633 270.0056915283203) rotate(0 17.01598358154297 10)"><text x="17.01598358154297" y="0" font-family="Virgil, Segoe UI Emoji" font-size="16px" fill="#1e1e1e" text-anchor="middle" style="white-space: pre;" direction="ltr" dominant-baseline="text-before-edge">build</text></g><g stroke-linecap="round" transform="translate(555.203369140625 261.3949279785156) rotate(0 33.908111572265625 19.866195678710938)"><path d="M9.93 0 C28.69 0.28, 42.68 1.39, 57.88 0 C65.14 -0.54, 67.78 4.64, 67.82 9.93 C66.01 17.61, 67.66 26.84, 67.82 29.8 C67.14 36.57, 62.62 39.47, 57.88 39.73 C39.44 39.15, 23.72 38.23, 9.93 39.73 C4.28 38.76, 1.06 37.92, 0 29.8 C1.16 21.17, -0.73 14.85, 0 9.93 C0.63 1.97, 2.13 1.63, 9.93 0" stroke="none" stroke-width="0" fill="#ffec99"></path><path d="M9.93 0 C28.82 -0.41, 46.77 -0.39, 57.88 0 M9.93 0 C24.34 0.21, 38.85 -0.05, 57.88 0 M57.88 0 C64.81 -0.05, 67.78 2.83, 67.82 9.93 M57.88 0 C64.76 0.69, 68.56 3.69, 67.82 9.93 M67.82 9.93 C68.32 17.59, 67.71 23.9, 67.82 29.8 M67.82 9.93 C67.97 15.7, 67.86 21.83, 67.82 29.8 M67.82 29.8 C67.7 36.83, 64.31 39.7, 57.88 39.73 M67.82 29.8 C68 36.89, 64.26 39.85, 57.88 39.73 M57.88 39.73 C40.93 40.06, 23.18 39.9, 9.93 39.73 M57.88 39.73 C42.15 40.06, 26.03 39.59, 9.93 39.73 M9.93 39.73 C3.72 39.98, 0.47 36.77, 0 29.8 M9.93 39.73 C3.87 39.06, 0.14 36.58, 0 29.8 M0 29.8 C-0.37 24.57, -0.29 18.15, 0 9.93 M0 29.8 C0.11 22.86, 0.03 16.09, 0 9.93 M0 9.93 C-0.29 3.44, 3.24 0.19, 9.93 0 M0 9.93 C0.36 2.93, 3.51 -0.64, 9.93 0" stroke="#1e1e1e" stroke-width="2" fill="none"></path></g><g transform="translate(565.9514999389648 271.26112365722656) rotate(0 23.15998077392578 10)"><text x="23.15998077392578" y="0" font-family="Virgil, Segoe UI Emoji" font-size="16px" fill="#1e1e1e" text-anchor="middle" style="white-space: pre;" direction="ltr" dominant-baseline="text-before-edge">deploy</text></g><g stroke-linecap="round" transform="translate(260.65594482421875 234.82943725585938) rotate(0 70.23880004882812 45)"><path d="M22.5 0 C54.89 -2.86, 91.83 -3.2, 117.98 0 C135.17 3.14, 139.34 10.83, 140.48 22.5 C141.34 33.58, 143.69 48.35, 140.48 67.5 C137.1 85.94, 134.94 89.81, 117.98 90 C88.75 91.51, 62.56 85.52, 22.5 90 C6.04 89.8, -2.13 85.05, 0 67.5 C-0.7 52.59, -0.86 35.97, 0 22.5 C-3.27 4.56, 9.12 1.6, 22.5 0" stroke="none" stroke-width="0" fill="#ffec99"></path><path d="M22.5 0 C47.35 2.27, 75.41 0.52, 117.98 0 M22.5 0 C44.05 0.07, 64.29 -0.88, 117.98 0 M117.98 0 C132.63 1.9, 142.01 7.7, 140.48 22.5 M117.98 0 C132.87 -1.26, 139.05 7.26, 140.48 22.5 M140.48 22.5 C141.22 34.97, 139.36 46.97, 140.48 67.5 M140.48 22.5 C139.96 33.56, 141.05 43.34, 140.48 67.5 M140.48 67.5 C140.49 82.31, 134.33 89.94, 117.98 90 M140.48 67.5 C138.18 82.5, 131.6 88.07, 117.98 90 M117.98 90 C78.61 88.84, 43.14 89.09, 22.5 90 M117.98 90 C86.94 89.19, 53.59 90.44, 22.5 90 M22.5 90 C9.43 89.7, -1.83 83.42, 0 67.5 M22.5 90 C8.63 88.78, 1.68 83.99, 0 67.5 M0 67.5 C1.82 52.36, -0.06 41.67, 0 22.5 M0 67.5 C-0.64 49.83, -0.42 32, 0 22.5 M0 22.5 C-0.83 6.62, 5.89 1.97, 22.5 0 M0 22.5 C-1.12 6.05, 7.27 -1.43, 22.5 0" stroke="#1e1e1e" stroke-width="2" fill="none"></path></g><g transform="translate(279.30277252197266 239.82943725585938) rotate(0 51.59197235107422 40)"><text x="51.59197235107422" y="0" font-family="Virgil, Segoe UI Emoji" font-size="16px" fill="#1e1e1e" text-anchor="middle" style="white-space: pre;" direction="ltr" dominant-baseline="text-before-edge">env </text><text x="51.59197235107422" y="20" font-family="Virgil, Segoe UI Emoji" font-size="16px" fill="#1e1e1e" text-anchor="middle" style="white-space: pre;" direction="ltr" dominant-baseline="text-before-edge">determination</text><text x="51.59197235107422" y="40" font-family="Virgil, Segoe UI Emoji" font-size="16px" fill="#1e1e1e" text-anchor="middle" style="white-space: pre;" direction="ltr" dominant-baseline="text-before-edge">(based on </text><text x="51.59197235107422" y="60" font-family="Virgil, Segoe UI Emoji" font-size="16px" fill="#1e1e1e" text-anchor="middle" style="white-space: pre;" direction="ltr" dominant-baseline="text-before-edge">branch name)</text></g><g stroke-linecap="round" transform="translate(191.6343994140625 412.1756591796875) rotate(0 231.13357543945312 96.87860107421875)"><path d="M32 0 C124.89 -0.79, 218.42 -0.83, 430.27 0 M430.27 0 C450.07 1.66, 461.52 10.78, 462.27 32 M462.27 32 C462.37 61.6, 461.61 89.97, 462.27 161.76 M462.27 161.76 C463.63 184.08, 453.16 193.04, 430.27 193.76 M430.27 193.76 C319.82 195.89, 211.45 195.29, 32 193.76 M32 193.76 C10.89 193.45, -1.62 183.7, 0 161.76 M0 161.76 C1.01 120.14, 1.56 77.53, 0 32 M0 32 C0.35 9.91, 10.77 0.65, 32 0" stroke="#1e1e1e" stroke-width="2.5" fill="none" stroke-dasharray="1.5 8"></path></g><g transform="translate(146.29812622070312 423.0703125) rotate(0 204.28118896484375 21.210800340915398)"><text x="204.28118896484375" y="0" font-family="Virgil, Segoe UI Emoji" font-size="16.96864027273233px" fill="#1e1e1e" text-anchor="middle" style="white-space: pre;" direction="ltr" dominant-baseline="text-before-edge">env setting(includeing en variable, </text><text x="204.28118896484375" y="21.210800340915412" font-family="Virgil, Segoe UI Emoji" font-size="16.96864027273233px" fill="#1e1e1e" text-anchor="middle" style="white-space: pre;" direction="ltr" dominant-baseline="text-before-edge">         build, deploy, and function configuration)</text></g><g stroke-linecap="round" transform="translate(203.63754272460938 506.59906005859375) rotate(0 54.007965087890625 35)"><path d="M17.5 0 C38.7 2.15, 59.6 -0.75, 90.52 0 M17.5 0 C40.12 -0.51, 63.49 -0.23, 90.52 0 M90.52 0 C103.79 -1.06, 107.68 4.23, 108.02 17.5 M90.52 0 C102.85 -1.37, 108.54 7.58, 108.02 17.5 M108.02 17.5 C107.51 27.01, 106.57 36.74, 108.02 52.5 M108.02 17.5 C107.59 28.03, 107.83 40.31, 108.02 52.5 M108.02 52.5 C106.72 62.59, 100.72 70.68, 90.52 70 M108.02 52.5 C107.86 65.68, 101.73 68.22, 90.52 70 M90.52 70 C65.92 70.2, 43.78 69.87, 17.5 70 M90.52 70 C68.21 70.27, 46.34 69.93, 17.5 70 M17.5 70 C7.74 70.09, -1.18 62.78, 0 52.5 M17.5 70 C5.79 70.04, -0.32 64.86, 0 52.5 M0 52.5 C1.09 41.38, 0.17 30.92, 0 17.5 M0 52.5 C0.73 39.05, 0.76 28.02, 0 17.5 M0 17.5 C0.46 6.36, 7.12 -1.67, 17.5 0 M0 17.5 C0.08 7.85, 7.27 -1.68, 17.5 0" stroke="#f08c00" stroke-width="2" fill="none"></path></g><g transform="translate(221.44552612304688 521.5990600585938) rotate(0 36.199981689453125 20)"><text x="36.199981689453125" y="0" font-family="Virgil, Segoe UI Emoji" font-size="16px" fill="#f08c00" text-anchor="middle" style="white-space: pre;" direction="ltr" dominant-baseline="text-before-edge">command </text><text x="36.199981689453125" y="20" font-family="Virgil, Segoe UI Emoji" font-size="16px" fill="#f08c00" text-anchor="middle" style="white-space: pre;" direction="ltr" dominant-baseline="text-before-edge">option</text></g><g stroke-linecap="round" transform="translate(319.60498046875 482.7318115234375) rotate(0 95.74057006835938 50)"><path d="M120 12.75 C134.28 19.05, 145.12 25.83, 167.48 38.25 M120 12.75 C131.67 19.75, 143.43 24.16, 167.48 38.25 M167.48 38.25 C189.62 51.1, 192.27 50.72, 167.48 63.75 M167.48 38.25 C193.56 50.26, 192.08 53.1, 167.48 63.75 M167.48 63.75 C158.37 70.84, 146.85 75.69, 120 87.25 M167.48 63.75 C156.57 68.17, 146.63 73.97, 120 87.25 M120 87.25 C97.26 101.94, 97.78 101.97, 72 87.25 M120 87.25 C97.06 100.26, 96.73 98.07, 72 87.25 M72 87.25 C55.47 76.27, 35.58 68.31, 24 63.75 M72 87.25 C53.9 79.36, 36.79 70.7, 24 63.75 M24 63.75 C0.67 51.85, -1.36 52.78, 24 38.25 M24 63.75 C-0.92 52.43, 0.33 51.34, 24 38.25 M24 38.25 C33.97 31.7, 45.93 26.37, 72 12.75 M24 38.25 C35.64 31.59, 49.04 25.58, 72 12.75 M72 12.75 C94.52 1.13, 97.92 0.99, 120 12.75 M72 12.75 C94.51 0.77, 96.21 1.49, 120 12.75" stroke="#e03131" stroke-width="2" fill="none"></path></g><g transform="translate(373.0353012084961 512.7318115234375) rotate(0 42.439964294433594 20)"><text x="42.439964294433594" y="0" font-family="Virgil, Segoe UI Emoji" font-size="16px" fill="#e03131" text-anchor="middle" style="white-space: pre;" direction="ltr" dominant-baseline="text-before-edge">netlify.toml</text><text x="42.439964294433594" y="20" font-family="Virgil, Segoe UI Emoji" font-size="16px" fill="#e03131" text-anchor="middle" style="white-space: pre;" direction="ltr" dominant-baseline="text-before-edge">file</text></g><g stroke-linecap="round" transform="translate(517.8984375 486.67803955078125) rotate(0 55.843841552734375 43.860992431640625)"><path d="M63.87 0.02 C72.78 0.59, 82.36 5.09, 89.69 9.75 C97.02 14.41, 104.24 21.33, 107.85 27.98 C111.46 34.62, 112.78 42.59, 111.35 49.64 C109.93 56.68, 104.97 64.46, 99.32 70.23 C93.67 76.01, 86.11 81.38, 77.47 84.26 C68.84 87.14, 56.82 88.41, 47.49 87.5 C38.17 86.59, 28.72 83.54, 21.54 78.83 C14.35 74.11, 8.02 66.03, 4.37 59.2 C0.72 52.38, -1.76 45.1, -0.35 37.86 C1.07 30.63, 6.93 21.61, 12.86 15.79 C18.8 9.97, 25.68 5.44, 35.27 2.94 C44.86 0.45, 63.26 0.45, 70.41 0.82 C77.56 1.18, 78.29 4.34, 78.16 5.13 M42.22 2.7 C50.49 0.25, 61.6 1.03, 70.46 2.76 C79.32 4.5, 89.01 8.34, 95.36 13.12 C101.7 17.9, 106.34 24.36, 108.54 31.44 C110.74 38.51, 110.96 48.6, 108.55 55.57 C106.14 62.55, 100.3 68.36, 94.09 73.27 C87.88 78.18, 80 83.1, 71.29 85.04 C62.58 86.98, 50.81 86.33, 41.84 84.9 C32.88 83.46, 24.28 81.4, 17.49 76.44 C10.71 71.48, 3.84 62.57, 1.13 55.14 C-1.57 47.7, -1.41 38.76, 1.25 31.83 C3.91 24.91, 10.66 18.51, 17.09 13.6 C23.52 8.69, 35.8 4, 39.83 2.38 C43.86 0.76, 40.69 3.24, 41.27 3.86" stroke="#1971c2" stroke-width="2" fill="none"></path></g><g transform="translate(544.2107441732106 510.52462680443693) rotate(0 29.543975830078125 20)"><text x="29.543975830078125" y="0" font-family="Virgil, Segoe UI Emoji" font-size="16px" fill="#1971c2" text-anchor="middle" style="white-space: pre;" direction="ltr" dominant-baseline="text-before-edge">Netlify </text><text x="29.543975830078125" y="20" font-family="Virgil, Segoe UI Emoji" font-size="16px" fill="#1971c2" text-anchor="middle" style="white-space: pre;" direction="ltr" dominant-baseline="text-before-edge">UI</text></g><g stroke-linecap="round"><g transform="translate(334.78002973906655 408.678955078125) rotate(0 -1.3084912030269606 -41.49740638619906)"><path d="M-0.06 -0.04 C-0.55 -13.89, -2.36 -69.15, -2.81 -82.95 M0.19 -0.2 C-0.26 -14.03, -2.02 -69.05, -2.52 -82.81" stroke="#1e1e1e" stroke-width="2" fill="none"></path></g><g transform="translate(334.78002973906655 408.678955078125) rotate(0 -1.3084912030269606 -41.49740638619906)"><path d="M8.69 -54.98 C4.18 -66.09, -0.32 -76.83, -2.52 -82.81 M8.69 -54.98 C5.54 -62.76, 2.48 -70.73, -2.52 -82.81" stroke="#1e1e1e" stroke-width="2" fill="none"></path></g><g transform="translate(334.78002973906655 408.678955078125) rotate(0 -1.3084912030269606 -41.49740638619906)"><path d="M-11.82 -54.29 C-8.29 -65.66, -4.77 -76.66, -2.52 -82.81 M-11.82 -54.29 C-9.19 -62.26, -6.47 -70.43, -2.52 -82.81" stroke="#1e1e1e" stroke-width="2" fill="none"></path></g></g><mask></mask><g stroke-linecap="round" transform="translate(223.4407958984375 169.94863891601562) rotate(0 328.0703125 103.02890014648438)"><path d="M32 0 C223.56 1.86, 414.97 0.92, 624.14 0 M624.14 0 C646.53 1.81, 658.13 11.59, 656.14 32 M656.14 32 C654.94 74.45, 657.92 114.62, 656.14 174.06 M656.14 174.06 C656.49 195.47, 643.72 204.47, 624.14 206.06 M624.14 206.06 C415.23 203.53, 204.74 203.23, 32 206.06 M32 206.06 C11.56 207.53, 0.9 194.76, 0 174.06 M0 174.06 C-0.07 136.46, -0.98 97.36, 0 32 M0 32 C1.49 10.57, 12.64 -1.41, 32 0" stroke="#1e1e1e" stroke-width="2.5" fill="none" stroke-dasharray="1.5 8"></path></g><g transform="translate(190.61908721923828 185.588623046875) rotate(0 66.94396209716797 10)"><text x="66.94396209716797" y="0" font-family="Virgil, Segoe UI Emoji" font-size="16px" fill="#1e1e1e" text-anchor="middle" style="white-space: pre;" direction="ltr" dominant-baseline="text-before-edge">     Netlify Core</text></g><g transform="translate(105.41742706298828 252.7493896484375) rotate(0 55.57598114013672 10)"><text x="55.57598114013672" y="0" font-family="Virgil, Segoe UI Emoji" font-size="16px" fill="#1e1e1e" text-anchor="middle" style="white-space: pre;" direction="ltr" dominant-baseline="text-before-edge">      WebHook</text></g><g stroke-linecap="round" transform="translate(655.5306396484375 250.58184814453125) rotate(0 44.674896240234375 26.194091796875)"><path d="M13.1 0 C34.24 1.36, 59.27 -2.99, 76.25 0 C84.26 -1.69, 91.46 5.34, 89.35 13.1 C88.37 19.78, 89.97 26.48, 89.35 39.29 C92.38 48.34, 84.24 52.2, 76.25 52.39 C60.26 53.17, 42.82 51.03, 13.1 52.39 C2.83 49.05, 2.04 51.02, 0 39.29 C-3.57 31.43, -2.69 21.51, 0 13.1 C-1.73 4.32, 7.85 -2.83, 13.1 0" stroke="none" stroke-width="0" fill="#ffec99"></path><path d="M13.1 0 C31.1 -1.6, 49.88 -1.31, 76.25 0 M13.1 0 C32.28 0.57, 50.04 0.21, 76.25 0 M76.25 0 C86.64 -1.64, 90.23 3.97, 89.35 13.1 M76.25 0 C86.82 -1.62, 89.53 2.87, 89.35 13.1 M89.35 13.1 C90.65 19.61, 90.61 22.13, 89.35 39.29 M89.35 13.1 C89.83 21.83, 88.79 30.37, 89.35 39.29 M89.35 39.29 C90.46 49.71, 84.28 53.1, 76.25 52.39 M89.35 39.29 C91.55 46.71, 82.87 52.49, 76.25 52.39 M76.25 52.39 C60.66 53.87, 47.52 51.27, 13.1 52.39 M76.25 52.39 C61.86 51.9, 45.19 52.25, 13.1 52.39 M13.1 52.39 C3.83 53.86, 1.42 46.17, 0 39.29 M13.1 52.39 C3.43 53.19, 0.27 46.05, 0 39.29 M0 39.29 C-0.34 30.01, -1.14 18.04, 0 13.1 M0 39.29 C0.17 32.46, -0.43 25.26, 0 13.1 M0 13.1 C1.6 2.51, 5.14 1.64, 13.1 0 M0 13.1 C-1.45 2.08, 2.73 -2.06, 13.1 0" stroke="#1e1e1e" stroke-width="2" fill="none"></path></g><g transform="translate(665.2375564575195 256.77593994140625) rotate(0 34.967979431152344 20)"><text x="34.967979431152344" y="0" font-family="Virgil, Segoe UI Emoji" font-size="16px" fill="#1e1e1e" text-anchor="middle" style="white-space: pre;" direction="ltr" dominant-baseline="text-before-edge">set up  </text><text x="34.967979431152344" y="20" font-family="Virgil, Segoe UI Emoji" font-size="16px" fill="#1e1e1e" text-anchor="middle" style="white-space: pre;" direction="ltr" dominant-baseline="text-before-edge">functions</text></g><g stroke-linecap="round"><g transform="translate(405.45245361328125 277.3321092630661) rotate(0 20.698623008414756 0.332958044587059)"><path d="M-0.08 0.09 C6.84 0.19, 34.57 0.38, 41.48 0.47 M0.15 0.01 C7.07 0.15, 34.57 0.59, 41.42 0.65" stroke="#1e1e1e" stroke-width="2" fill="none"></path></g><g transform="translate(405.45245361328125 277.3321092630661) rotate(0 20.698623008414756 0.332958044587059)"><path d="M21.9 7.47 C27.09 5.97, 31.9 4.01, 41.42 0.65 M21.9 7.47 C29.54 4.71, 37.45 1.97, 41.42 0.65" stroke="#1e1e1e" stroke-width="2" fill="none"></path></g><g transform="translate(405.45245361328125 277.3321092630661) rotate(0 20.698623008414756 0.332958044587059)"><path d="M22.09 -6.68 C27.22 -4.54, 31.97 -2.89, 41.42 0.65 M22.09 -6.68 C29.67 -3.84, 37.51 -0.99, 41.42 0.65" stroke="#1e1e1e" stroke-width="2" fill="none"></path></g></g><mask></mask><g stroke-linecap="round"><g transform="translate(518.5278320312501 278.4023437500001) rotate(0 17.849069553123627 0.23672567389357368)"><path d="M-0.12 -0.1 C5.87 -0.04, 29.87 0.33, 35.82 0.43 M0.09 0.16 C6.08 0.24, 29.81 0.49, 35.78 0.58" stroke="#1e1e1e" stroke-width="2" fill="none"></path></g><g transform="translate(518.5278320312501 278.4023437500001) rotate(0 17.849069553123627 0.23672567389357368)"><path d="M18.94 6.47 C22.21 5.53, 25.69 3.88, 35.78 0.58 M18.94 6.47 C24 4.71, 28.94 3.07, 35.78 0.58" stroke="#1e1e1e" stroke-width="2" fill="none"></path></g><g transform="translate(518.5278320312501 278.4023437500001) rotate(0 17.849069553123627 0.23672567389357368)"><path d="M19.09 -5.73 C22.33 -4.17, 25.78 -3.33, 35.78 0.58 M19.09 -5.73 C24.11 -3.89, 29.01 -1.93, 35.78 0.58" stroke="#1e1e1e" stroke-width="2" fill="none"></path></g></g><mask></mask><g stroke-linecap="round"><g transform="translate(624.0740966796875 280.82651860221563) rotate(0 14.626449771720104 -0.24080976383470443)"><path d="M-0.14 -0.11 C4.77 -0.24, 24.49 -0.58, 29.4 -0.64 M0.05 0.16 C4.96 0.11, 24.45 -0.33, 29.31 -0.47" stroke="#1e1e1e" stroke-width="2" fill="none"></path></g><g transform="translate(624.0740966796875 280.82651860221563) rotate(0 14.626449771720104 -0.24080976383470443)"><path d="M15.65 4.89 C18.81 3.69, 22.21 2.26, 29.31 -0.47 M15.65 4.89 C20.94 2.88, 26.2 0.7, 29.31 -0.47" stroke="#1e1e1e" stroke-width="2" fill="none"></path></g><g transform="translate(624.0740966796875 280.82651860221563) rotate(0 14.626449771720104 -0.24080976383470443)"><path d="M15.4 -5.14 C18.63 -3.91, 22.1 -2.9, 29.31 -0.47 M15.4 -5.14 C20.78 -3.27, 26.14 -1.57, 29.31 -0.47" stroke="#1e1e1e" stroke-width="2" fill="none"></path></g></g><mask></mask><g stroke-linecap="round"><g transform="translate(147.3070068359375 282.02703857421875) rotate(0 58.88232360398982 -0.9580528127288801)"><path d="M0.03 -0.04 C19.63 -0.33, 98.02 -1.39, 117.61 -1.64 M-0.13 -0.2 C19.51 -0.54, 98.23 -1.61, 117.9 -1.87" stroke="#1e1e1e" stroke-width="2" fill="none"></path></g><g transform="translate(147.3070068359375 282.02703857421875) rotate(0 58.88232360398982 -0.9580528127288801)"><path d="M89.85 8.77 C98.97 5.09, 108.38 1.5, 117.9 -1.87 M89.85 8.77 C100.8 4.66, 112.09 0.48, 117.9 -1.87" stroke="#1e1e1e" stroke-width="2" fill="none"></path></g><g transform="translate(147.3070068359375 282.02703857421875) rotate(0 58.88232360398982 -0.9580528127288801)"><path d="M89.57 -11.75 C98.8 -8.69, 108.3 -5.54, 117.9 -1.87 M89.57 -11.75 C100.61 -7.78, 112 -3.88, 117.9 -1.87" stroke="#1e1e1e" stroke-width="2" fill="none"></path></g></g><mask></mask><g stroke-linecap="round" transform="translate(400.91534423828125 69.53192138671875) rotate(0 126.03524780273438 33.56498718261719)"><path d="M16.78 0 C100.72 1.05, 187.26 -0.66, 235.29 0 M235.29 0 C245.98 0.42, 253.64 6.08, 252.07 16.78 M252.07 16.78 C252.52 30.83, 252.33 42.29, 252.07 50.35 M252.07 50.35 C250.1 61.06, 245.42 66.98, 235.29 67.13 M235.29 67.13 C167.96 67.3, 97.34 68.22, 16.78 67.13 M16.78 67.13 C7.51 66.15, -1.4 62.83, 0 50.35 M0 50.35 C0.13 38.1, 0.55 27.86, 0 16.78 M0 16.78 C0.12 7.55, 6.47 1.78, 16.78 0" stroke="#1e1e1e" stroke-width="2.5" fill="none" stroke-dasharray="1.5 8"></path></g><g transform="translate(410.6532897949219 74.24899291992188) rotate(0 24.431976318359375 10)"><text x="24.431976318359375" y="0" font-family="Virgil, Segoe UI Emoji" font-size="16px" fill="#1e1e1e" text-anchor="middle" style="white-space: pre;" direction="ltr" dominant-baseline="text-before-edge">plugins</text></g><g stroke-linecap="round" transform="translate(448.73663330078125 97.6654052734375) rotate(0 17.1397705078125 14.15521240234375)"><path d="M22.5 3.75 C24.4 5.51, 25.97 7.46, 29.78 11.25 M22.5 3.75 C24.14 5.54, 25.96 7.24, 29.78 11.25 M29.78 11.25 C34.37 14.86, 34.05 15.09, 29.78 18.75 M29.78 11.25 C33.78 14.81, 34.07 15.15, 29.78 18.75 M29.78 18.75 C27.51 20.42, 25.26 22.44, 22.5 24.56 M29.78 18.75 C27.12 20.68, 24.55 22.94, 22.5 24.56 M22.5 24.56 C18.11 28.01, 17.82 28.34, 13.5 24.56 M22.5 24.56 C18.21 27.96, 17.83 28.72, 13.5 24.56 M13.5 24.56 C10.89 22.99, 8.23 21.28, 4.5 18.75 M13.5 24.56 C10.97 22.79, 8.41 21.28, 4.5 18.75 M4.5 18.75 C0.06 14.82, 0.29 15.39, 4.5 11.25 M4.5 18.75 C0.16 15.04, -0.44 15.5, 4.5 11.25 M4.5 11.25 C6.56 9.66, 8.75 7.52, 13.5 3.75 M4.5 11.25 C7.99 8.57, 11.18 5.78, 13.5 3.75 M13.5 3.75 C17.63 -0.47, 17.56 -0.4, 22.5 3.75 M13.5 3.75 C18.12 0.18, 17.85 0.34, 22.5 3.75" stroke="#2f9e44" stroke-width="1" fill="none"></path></g><g stroke-linecap="round" transform="translate(503.91851806640625 98.08175659179688) rotate(0 16.314117431640625 11.332351684570312)"><path d="M17.75 -0.01 C21.12 0.08, 25.7 1.84, 28.16 3.61 C30.61 5.38, 32.25 8.23, 32.47 10.62 C32.69 13.02, 31.47 16.03, 29.48 17.99 C27.49 19.96, 23.88 21.8, 20.55 22.42 C17.21 23.04, 12.67 22.79, 9.47 21.72 C6.27 20.65, 2.83 18.2, 1.33 15.97 C-0.16 13.74, -0.41 10.68, 0.53 8.35 C1.47 6.02, 4.02 3.35, 6.98 1.98 C9.93 0.62, 16.35 0.44, 18.24 0.14 C20.14 -0.17, 18.45 -0.03, 18.35 0.14 M16.08 -0.01 C19.39 -0.2, 23.86 0.77, 26.61 2.25 C29.37 3.73, 31.91 6.43, 32.61 8.86 C33.32 11.3, 32.56 14.64, 30.83 16.85 C29.1 19.06, 25.49 21.29, 22.22 22.14 C18.95 23, 14.55 22.79, 11.21 21.99 C7.87 21.19, 3.97 19.48, 2.18 17.36 C0.39 15.24, -0.12 11.7, 0.45 9.27 C1.02 6.85, 2.96 4.39, 5.6 2.82 C8.24 1.25, 14.53 0.27, 16.28 -0.13 C18.03 -0.52, 16.08 0.23, 16.09 0.43" stroke="#1971c2" stroke-width="1" fill="none"></path></g><g stroke-linecap="round" transform="translate(545.5501708984375 83.077392578125) rotate(0 15.12432861328125 11.199066162109375)"><path d="M5.6 0 C11.39 -0.21, 16.21 0.28, 24.65 0 M5.6 0 C11.77 0.12, 18.36 -0.12, 24.65 0 M24.65 0 C28.4 0.24, 30.29 1.67, 30.25 5.6 M24.65 0 C28.05 -0.45, 30.38 1.61, 30.25 5.6 M30.25 5.6 C30.06 9.05, 30.38 12.64, 30.25 16.8 M30.25 5.6 C30.3 8.22, 30.17 10.83, 30.25 16.8 M30.25 16.8 C30.49 20.32, 28.16 22.43, 24.65 22.4 M30.25 16.8 C29.86 20.37, 28.2 22.42, 24.65 22.4 M24.65 22.4 C18.49 22.39, 12.74 22.8, 5.6 22.4 M24.65 22.4 C20.33 22.58, 15.82 22.28, 5.6 22.4 M5.6 22.4 C1.56 22.35, 0.26 20.35, 0 16.8 M5.6 22.4 C1.94 22.68, -0.33 20.99, 0 16.8 M0 16.8 C-0.18 13.23, -0.16 9.84, 0 5.6 M0 16.8 C-0.01 14.01, 0.03 11.42, 0 5.6 M0 5.6 C-0.18 2.18, 2.13 -0.05, 5.6 0 M0 5.6 C0.15 1.96, 1.86 0.26, 5.6 0" stroke="#1e1e1e" stroke-width="1" fill="none"></path></g><g stroke-linecap="round" transform="translate(590.8844604492188 92.865234375) rotate(0 15.22430419921875 17.675048828125)"><path d="M20 4.5 C22.41 7.65, 24.51 11.19, 26.45 13.5 M20 4.5 C22.36 7.76, 24.75 11.09, 26.45 13.5 M26.45 13.5 C30.32 18.43, 30.83 17.54, 26.45 22.5 M26.45 13.5 C30.91 17.51, 30.21 17.77, 26.45 22.5 M26.45 22.5 C24.84 24.46, 23.15 27.04, 20 30.85 M26.45 22.5 C24.96 24.72, 23.29 26.75, 20 30.85 M20 30.85 C16.5 35.51, 16.5 35.15, 12 30.85 M20 30.85 C15.71 35.46, 16.04 35.1, 12 30.85 M12 30.85 C8.67 27.47, 5.73 24.12, 4 22.5 M12 30.85 C9.55 28.2, 7.07 25.48, 4 22.5 M4 22.5 C0.11 18.23, -0.28 17.91, 4 13.5 M4 22.5 C0.01 17.73, 0 18.18, 4 13.5 M4 13.5 C6.39 10.58, 8.89 7.96, 12 4.5 M4 13.5 C6.8 10.64, 9.2 7.59, 12 4.5 M12 4.5 C15.98 -0.16, 15.68 0.22, 20 4.5 M12 4.5 C15.93 -0.25, 16.42 -0.39, 20 4.5" stroke="#e8590c" stroke-width="1" fill="none"></path></g><g stroke-linecap="round"><g transform="translate(478.1571044921875 138.90908813476562) rotate(0 0.949872657619153 58.79807680518152)"><path d="M0.09 -0.04 C0.41 19.61, 1.65 98.14, 1.94 117.78 M-0.04 -0.19 C0.27 19.43, 1.58 97.92, 1.88 117.54" stroke="#1e1e1e" stroke-width="2" fill="none"></path></g><g transform="translate(478.1571044921875 138.90908813476562) rotate(0 0.949872657619153 58.79807680518152)"><path d="M-8.83 89.52 C-5.52 98.66, -1.96 107.39, 1.88 117.54 M-8.83 89.52 C-5.18 98.72, -1.71 108.29, 1.88 117.54" stroke="#1e1e1e" stroke-width="2" fill="none"></path></g><g transform="translate(478.1571044921875 138.90908813476562) rotate(0 0.949872657619153 58.79807680518152)"><path d="M11.68 89.19 C8.45 98.46, 5.47 107.29, 1.88 117.54 M11.68 89.19 C8.5 98.49, 5.13 108.17, 1.88 117.54" stroke="#1e1e1e" stroke-width="2" fill="none"></path></g></g><mask></mask><g stroke-linecap="round" transform="translate(911.8040771484375 237.64047241210938) rotate(0 56.459136962890625 37.800567626953125)"><path d="M35.86 2.73 C44.03 0.01, 55.69 -0.22, 65.1 0.85 C74.52 1.92, 85.08 5.22, 92.35 9.15 C99.63 13.08, 105.51 18.66, 108.75 24.42 C111.99 30.19, 113.12 37.42, 111.79 43.73 C110.45 50.05, 106.53 57.3, 100.74 62.3 C94.95 67.29, 85.88 71.42, 77.04 73.72 C68.2 76.02, 56.92 77.11, 47.7 76.1 C38.47 75.09, 28.95 71.72, 21.71 67.66 C14.46 63.59, 7.71 57.49, 4.22 51.7 C0.74 45.91, -0.56 39.02, 0.79 32.89 C2.13 26.76, 5.17 20.32, 12.28 14.92 C19.39 9.51, 37.24 2.88, 43.45 0.48 C49.66 -1.92, 49.47 -0.32, 49.54 0.51 M78.38 2.68 C86.8 4.65, 95.63 9.34, 101.14 14.53 C106.65 19.72, 110.56 27.32, 111.47 33.79 C112.37 40.27, 110.2 47.77, 106.58 53.37 C102.96 58.97, 97.15 63.64, 89.76 67.39 C82.36 71.13, 71.84 75.23, 62.22 75.82 C52.6 76.41, 40.67 73.74, 32.03 70.93 C23.39 68.12, 15.43 63.74, 10.36 58.98 C5.3 54.22, 2.35 48.53, 1.64 42.35 C0.93 36.17, 2.49 27.63, 6.11 21.9 C9.72 16.16, 15.9 11.4, 23.33 7.95 C30.77 4.5, 41.27 1.88, 50.73 1.2 C60.2 0.51, 75.62 3.24, 80.12 3.85 C84.61 4.46, 78.26 4.61, 77.69 4.85" stroke="none" stroke-width="0" fill="#a5d8ff"></path><path d="M40.8 2.1 C48.83 -0.24, 59.47 -0.74, 68.34 0.69 C77.21 2.12, 86.84 6.46, 94.01 10.7 C101.18 14.94, 108.33 20.3, 111.35 26.15 C114.36 32, 114.41 39.63, 112.1 45.79 C109.79 51.95, 104.09 58.32, 97.49 63.11 C90.89 67.91, 81.58 72.82, 72.52 74.58 C63.45 76.34, 52.1 75.02, 43.12 73.66 C34.14 72.29, 25.51 70.62, 18.63 66.37 C11.74 62.13, 4.71 54.23, 1.81 48.2 C-1.09 42.17, -0.85 36.13, 1.24 30.2 C3.34 24.27, 7.02 17.42, 14.36 12.62 C21.71 7.81, 39.04 3.42, 45.31 1.38 C51.57 -0.67, 51.73 -0.16, 51.94 0.35 M60.26 -0.44 C69.37 -0.81, 79.34 2.86, 87.21 6.45 C95.07 10.04, 103.29 15.5, 107.44 21.09 C111.59 26.68, 112.59 33.61, 112.11 40 C111.64 46.39, 109.76 54.26, 104.6 59.42 C99.43 64.58, 89.83 68.33, 81.11 70.97 C72.4 73.6, 61.67 75.72, 52.29 75.23 C42.91 74.74, 32.43 71.24, 24.81 68.01 C17.19 64.79, 10.72 61.38, 6.58 55.87 C2.43 50.37, -0.72 41.4, -0.07 34.97 C0.59 28.54, 5.5 22.7, 10.51 17.3 C15.51 11.9, 21.9 5.26, 29.98 2.58 C38.07 -0.1, 53.81 1.44, 59.02 1.22 C64.22 0.99, 60.89 0.53, 61.2 1.21" stroke="#1e1e1e" stroke-width="2" fill="none"></path></g><g transform="translate(940.9085915571743 255.21200233734328) rotate(0 27.431983947753906 20)"><text x="27.431983947753906" y="0" font-family="Virgil, Segoe UI Emoji" font-size="16px" fill="#1e1e1e" text-anchor="middle" style="white-space: pre;" direction="ltr" dominant-baseline="text-before-edge">App </text><text x="27.431983947753906" y="20" font-family="Virgil, Segoe UI Emoji" font-size="16px" fill="#1e1e1e" text-anchor="middle" style="white-space: pre;" direction="ltr" dominant-baseline="text-before-edge">runtime</text></g><g stroke-linecap="round"><g transform="translate(662.353515625 100.91619873046875) rotate(0 153.15333023153477 67.35500828076911)"><path d="M-0.56 0.36 C43.96 2.66, 214.95 -9.07, 266.19 13.53 C317.42 36.14, 300.3 115.55, 306.87 136 M1.35 -0.5 C45.88 1.44, 214.88 -11.32, 265.77 11.6 C316.66 34.52, 300.04 116.1, 306.7 137.03" stroke="#1e1e1e" stroke-width="2" fill="none"></path></g><g transform="translate(662.353515625 100.91619873046875) rotate(0 153.15333023153477 67.35500828076911)"><path d="M294.57 109.59 C297.81 117.44, 300.51 123.77, 306.7 137.03 M294.57 109.59 C297.57 116.03, 300.82 124.27, 306.7 137.03" stroke="#1e1e1e" stroke-width="2" fill="none"></path></g><g transform="translate(662.353515625 100.91619873046875) rotate(0 153.15333023153477 67.35500828076911)"><path d="M315.04 108.21 C313.73 116.27, 311.87 122.91, 306.7 137.03 M315.04 108.21 C312.84 114.95, 310.89 123.54, 306.7 137.03" stroke="#1e1e1e" stroke-width="2" fill="none"></path></g></g><mask></mask><g transform="translate(669.8895645141602 71.81948852539062) rotate(0 104.1599349975586 10)"><text x="104.1599349975586" y="0" font-family="Virgil, Segoe UI Emoji" font-size="16px" fill="#1e1e1e" text-anchor="middle" style="white-space: pre;" direction="ltr" dominant-baseline="text-before-edge">runtime plugins like sentry </text></g><g transform="translate(486.7092819213867 184.37350463867188) rotate(0 110.59192657470703 10)"><text x="110.59192657470703" y="0" font-family="Virgil, Segoe UI Emoji" font-size="16px" fill="#1e1e1e" text-anchor="middle" style="white-space: pre;" direction="ltr" dominant-baseline="text-before-edge">buildtime plugins like sonaQB</text></g><g stroke-linecap="round" transform="translate(773.5343627929688 245.14990234375) rotate(0 42.5018310546875 35)"><path d="M17.5 0 C29.21 -2.05, 43.56 1.68, 67.5 0 C80.1 3.39, 85.96 2.95, 85 17.5 C84.13 33.6, 85.94 46.21, 85 52.5 C87.56 63.04, 80.23 73.39, 67.5 70 C59.35 73.19, 47.06 71.84, 17.5 70 C8.02 70.68, 1.73 67.28, 0 52.5 C0.7 40.75, -1.49 29.89, 0 17.5 C-2.97 8.73, 3.58 -2.83, 17.5 0" stroke="none" stroke-width="0" fill="#ffec99"></path><path d="M17.5 0 C32.41 -0.02, 48.52 0.51, 67.5 0 M17.5 0 C36.06 -0.49, 51.86 1.08, 67.5 0 M67.5 0 C79.6 0.73, 84.04 7.35, 85 17.5 M67.5 0 C79.31 1.97, 84.36 6.3, 85 17.5 M85 17.5 C86.13 26.21, 83.59 38.97, 85 52.5 M85 17.5 C85.69 31.53, 84.67 44.69, 85 52.5 M85 52.5 C86.2 62.77, 77.5 69.97, 67.5 70 M85 52.5 C84.36 62.36, 80.19 67.78, 67.5 70 M67.5 70 C53.96 70.66, 36.45 70.61, 17.5 70 M67.5 70 C56.29 69.49, 45.5 69.95, 17.5 70 M17.5 70 C7.34 70.91, -1.6 64.92, 0 52.5 M17.5 70 C3.73 71.38, -1.91 64.97, 0 52.5 M0 52.5 C-0.15 41.54, -1.5 32.49, 0 17.5 M0 52.5 C0.71 44.43, -0.23 35, 0 17.5 M0 17.5 C0.9 5.89, 5.96 0.04, 17.5 0 M0 17.5 C1.53 7.09, 5.66 1.63, 17.5 0" stroke="#1e1e1e" stroke-width="2" fill="none"></path></g><g transform="translate(782.7642135620117 250.14990234375) rotate(0 33.27198028564453 30)"><text x="33.27198028564453" y="0" font-family="Virgil, Segoe UI Emoji" font-size="16px" fill="#1e1e1e" text-anchor="middle" style="white-space: pre;" direction="ltr" dominant-baseline="text-before-edge">set up </text><text x="33.27198028564453" y="20" font-family="Virgil, Segoe UI Emoji" font-size="16px" fill="#1e1e1e" text-anchor="middle" style="white-space: pre;" direction="ltr" dominant-baseline="text-before-edge">network </text><text x="33.27198028564453" y="40" font-family="Virgil, Segoe UI Emoji" font-size="16px" fill="#1e1e1e" text-anchor="middle" style="white-space: pre;" direction="ltr" dominant-baseline="text-before-edge">gate</text></g><g stroke-linecap="round"><g transform="translate(746.5494384765627 275.32408756687096) rotate(0 15.148061337169224 0.18680501309088982)"><path d="M-0.12 -0.09 C4.96 -0.05, 25.32 0.26, 30.41 0.34 M0.09 0.18 C5.16 0.22, 25.27 0.41, 30.32 0.46" stroke="#1e1e1e" stroke-width="2" fill="none"></path></g><g transform="translate(746.5494384765627 275.32408756687096) rotate(0 15.148061337169224 0.18680501309088982)"><path d="M16 5.52 C19.52 4.31, 23.15 3.08, 30.32 0.46 M16 5.52 C19.62 4.27, 23.16 2.91, 30.32 0.46" stroke="#1e1e1e" stroke-width="2" fill="none"></path></g><g transform="translate(746.5494384765627 275.32408756687096) rotate(0 15.148061337169224 0.18680501309088982)"><path d="M16.1 -4.87 C19.61 -3.42, 23.21 -1.99, 30.32 0.46 M16.1 -4.87 C19.68 -3.5, 23.2 -2.24, 30.32 0.46" stroke="#1e1e1e" stroke-width="2" fill="none"></path></g></g><mask></mask><g stroke-linecap="round"><g transform="translate(863.0227661132812 275.6350242293001) rotate(0 23.91593245875538 -0.15390547742177318)"><path d="M0.03 -0.1 C8 -0.16, 39.71 -0.42, 47.68 -0.48 M-0.13 0.17 C7.9 0.14, 39.97 -0.25, 47.96 -0.32" stroke="#1e1e1e" stroke-width="2" fill="none"></path></g><g transform="translate(863.0227661132812 275.6350242293001) rotate(0 23.91593245875538 -0.15390547742177318)"><path d="M25.6 8.09 C30.13 6.12, 34.89 4.68, 47.96 -0.32 M25.6 8.09 C31.87 5.59, 38.26 3.19, 47.96 -0.32" stroke="#1e1e1e" stroke-width="2" fill="none"></path></g><g transform="translate(863.0227661132812 275.6350242293001) rotate(0 23.91593245875538 -0.15390547742177318)"><path d="M25.42 -8.25 C29.97 -6.78, 34.77 -4.78, 47.96 -0.32 M25.42 -8.25 C31.72 -6.09, 38.17 -3.84, 47.96 -0.32" stroke="#1e1e1e" stroke-width="2" fill="none"></path></g></g><mask></mask><g transform="translate(138.1891326904297 640.7788696289062) rotate(0 274.2999267578125 19.318320710131616)"><text x="274.2999267578125" y="0" font-family="Virgil, Segoe UI Emoji" font-size="15.454656568105275px" fill="#1e1e1e" text-anchor="middle" style="white-space: pre;" direction="ltr" dominant-baseline="text-before-edge">- env determination is based on branch name in which codes are changed</text><text x="274.2999267578125" y="19.318320710131594" font-family="Virgil, Segoe UI Emoji" font-size="15.454656568105275px" fill="#1e1e1e" text-anchor="middle" style="white-space: pre;" direction="ltr" dominant-baseline="text-before-edge"></text></g><g transform="translate(138.41001892089844 662.1959228515625) rotate(0 414.3597717285156 20)"><text x="0" y="0" font-family="Virgil, Segoe UI Emoji" font-size="16px" fill="#1e1e1e" text-anchor="start" style="white-space: pre;" direction="ltr" dominant-baseline="text-before-edge">- Netlify put all configuration together in file involving env variable, build and deploy process and so on, </text><text x="0" y="20" font-family="Virgil, Segoe UI Emoji" font-size="16px" fill="#1e1e1e" text-anchor="start" style="white-space: pre;" direction="ltr" dominant-baseline="text-before-edge">Most other tools separetes and put them in different place</text></g><g transform="translate(137.33596801757812 706.8239135742188) rotate(0 460.1597900390625 10)"><text x="0" y="0" font-family="Virgil, Segoe UI Emoji" font-size="16px" fill="#1e1e1e" text-anchor="start" style="white-space: pre;" direction="ltr" dominant-baseline="text-before-edge">- for sensitive env varialbe setting, have to configure in Netlify UI which like some secret protection tool like vault</text></g><g transform="translate(137.0933837890625 731.3098754882812) rotate(0 506.5116882324219 20)"><text x="0" y="0" font-family="Virgil, Segoe UI Emoji" font-size="16px" fill="#1e1e1e" text-anchor="start" style="white-space: pre;" direction="ltr" dominant-baseline="text-before-edge">- plugins aims to integrate with other services that can be split into two types, one is buildingtime plugin working on build stage</text><text x="0" y="20" font-family="Virgil, Segoe UI Emoji" font-size="16px" fill="#1e1e1e" text-anchor="start" style="white-space: pre;" direction="ltr" dominant-baseline="text-before-edge">  another is runtime plugin working on runtime stage that makes App using third-part services</text></g></svg>