<svg version="1.1" xmlns="http://www.w3.org/2000/svg" viewBox="0 0 1160.7957757972126 929.8996132912653" width="3482.387327391638" height="2789.698839873796">
  <!-- svg-source:excalidraw -->
  
  <defs>
    <style class="style-fonts">
      @font-face {
        font-family: "Virgil";
        src: url("https://excalidraw.com/Virgil.woff2");
      }
      @font-face {
        font-family: "Cascadia";
        src: url("https://excalidraw.com/Cascadia.woff2");
      }
      @font-face {
        font-family: "Assistant";
        src: url("https://excalidraw.com/Assistant-Regular.woff2");
      }
    </style>
    
  </defs>
  <rect x="0" y="0" width="1160.7957757972126" height="929.8996132912653" fill="#ffffff"></rect><g transform="translate(10 10) rotate(0 110.82051086425781 34.06692058413171)"><text x="0" y="0" font-family="Helvetica, Segoe UI Emoji" font-size="19.748939469061856px" fill="#1e1e1e" text-anchor="start" style="white-space: pre;" direction="ltr" dominant-baseline="text-before-edge">how to configurate Netlify</text><text x="0" y="22.711280389421134" font-family="Helvetica, Segoe UI Emoji" font-size="19.748939469061856px" fill="#1e1e1e" text-anchor="start" style="white-space: pre;" direction="ltr" dominant-baseline="text-before-edge"></text><text x="0" y="45.42256077884227" font-family="Helvetica, Segoe UI Emoji" font-size="19.748939469061856px" fill="#1e1e1e" text-anchor="start" style="white-space: pre;" direction="ltr" dominant-baseline="text-before-edge"></text></g><g stroke-linecap="round" transform="translate(31.09613037109375 245.28561401367188) rotate(0 65.45249938964844 40.457916259765625)"><path d="M8.78 19.56 C8.78 19.56, 8.78 19.56, 8.78 19.56 M8.78 19.56 C8.78 19.56, 8.78 19.56, 8.78 19.56 M1.04 40.65 C10.78 29.58, 22.61 13.69, 30.56 6.69 M1.04 40.65 C7.03 33.13, 12.68 26.66, 30.56 6.69 M4.45 48.92 C17.82 33.56, 30.45 20.16, 43.82 3.64 M4.45 48.92 C14.18 37.67, 23.52 27.07, 43.82 3.64 M7.87 57.19 C27.87 35.06, 44.35 16.85, 55.76 2.09 M7.87 57.19 C26.39 35.43, 45.92 13.16, 55.76 2.09 M13.25 63.19 C28.72 47.63, 41.5 30.96, 68.36 -0.2 M13.25 63.19 C29.05 43.41, 46.01 25.95, 68.36 -0.2 M19.94 67.68 C43.17 42.59, 64.03 14.47, 77.02 2.02 M19.94 67.68 C33.79 51.68, 46.34 35.65, 77.02 2.02 M27.29 71.42 C42.43 53, 62.67 34.17, 86.34 3.5 M27.29 71.42 C47.12 47.86, 69.08 22.58, 86.34 3.5 M34.64 75.16 C47.75 60.72, 63.01 44.13, 95 5.73 M34.64 75.16 C55.07 51.07, 76.8 28.9, 95 5.73 M43.3 77.39 C61.84 55.76, 81.65 32.64, 103 8.71 M43.3 77.39 C66.37 51.04, 89.82 23.04, 103 8.71 M52.62 78.87 C69.93 60.64, 84.05 40.14, 109.7 13.21 M52.62 78.87 C71.42 58.55, 87.38 37.52, 109.7 13.21 M61.28 81.1 C76.41 62, 95.97 43.03, 116.39 17.7 M61.28 81.1 C76.98 64.21, 91.98 45.46, 116.39 17.7 M72.57 80.31 C87.94 63.06, 102.69 45.97, 123.08 22.2 M72.57 80.31 C89.79 60.22, 107.4 40.69, 123.08 22.2 M84.51 78.76 C93.83 67.62, 101.95 57.58, 126.5 30.46 M84.51 78.76 C101.1 60.25, 117.32 41.53, 126.5 30.46 M96.45 77.22 C108.81 65.23, 119.66 49.88, 130.57 37.98 M96.45 77.22 C104.3 68.68, 112.2 58.79, 130.57 37.98 M118.89 63.6 C120.23 62.53, 120.83 60.09, 122.83 59.07 M118.89 63.6 C120.52 61.94, 122.1 60.24, 122.83 59.07" stroke="#ffc9c9" stroke-width="1" fill="none"></path><path d="M34.36 4.26 C43.03 0.78, 57.01 -0.44, 68.02 -0.04 C79.03 0.37, 91.37 3.16, 100.43 6.69 C109.49 10.22, 117.2 15.52, 122.37 21.15 C127.55 26.78, 131.75 33.75, 131.48 40.49 C131.2 47.23, 126.67 55.55, 120.73 61.59 C114.79 67.63, 105.4 73.47, 95.85 76.73 C86.3 79.99, 74.07 81.55, 63.42 81.16 C52.76 80.77, 41.12 77.8, 31.93 74.38 C22.73 70.97, 13.55 66.6, 8.23 60.68 C2.91 54.76, -0.11 45.74, 0.01 38.86 C0.13 31.97, 2.49 25.2, 8.95 19.36 C15.41 13.52, 33.11 6.5, 38.76 3.8 C44.41 1.09, 42.69 2.57, 42.86 3.11 M84.11 2.72 C94.4 4.02, 106.46 6.81, 114.24 11.79 C122.01 16.77, 128.3 25.79, 130.77 32.59 C133.25 39.4, 132.71 46.21, 129.09 52.62 C125.47 59.04, 117.53 66.42, 109.04 71.09 C100.55 75.76, 88.89 79.35, 78.13 80.64 C67.38 81.94, 54.52 81.11, 44.5 78.86 C34.48 76.61, 25.08 72.13, 18.03 67.13 C10.99 62.13, 4.5 55.57, 2.22 48.84 C-0.06 42.11, 0.94 32.91, 4.38 26.76 C7.81 20.6, 15.17 15.99, 22.82 11.92 C30.46 7.86, 40 4.18, 50.25 2.37 C60.51 0.56, 78.35 0.97, 84.36 1.06 C90.36 1.15, 86.69 2.33, 86.3 2.93" stroke="#1e1e1e" stroke-width="2" fill="none"></path></g><g transform="translate(61.641723596713405 276.43546333347973) rotate(0 35.125 9.199999999999989)"><text x="35.125" y="0" font-family="Helvetica, Segoe UI Emoji" font-size="16px" fill="#1e1e1e" text-anchor="middle" style="white-space: pre;" direction="ltr" dominant-baseline="text-before-edge">repository</text></g><g stroke-linecap="round" transform="translate(467.8050537109375 266.1919250488281) rotate(0 33.6939697265625 19.591415405273438)"><path d="M9.8 0 C30.54 -2.72, 45.83 1.62, 57.59 0 C67.65 1.53, 68.91 2.18, 67.39 9.8 C65.96 16.48, 68.69 25.25, 67.39 29.39 C69.14 35.69, 65.25 39.07, 57.59 39.18 C44.96 36.94, 38.74 41.91, 9.8 39.18 C6.84 37.1, 1.98 37.33, 0 29.39 C3.54 26.68, 3.57 18.99, 0 9.8 C-0.05 1.3, 2.68 -1.34, 9.8 0" stroke="none" stroke-width="0" fill="#ffec99"></path><path d="M9.8 0 C24.04 -1.27, 40.71 1.6, 57.59 0 M9.8 0 C23.44 -0.21, 39.61 -0.02, 57.59 0 M57.59 0 C62.89 -1.52, 68.48 3.85, 67.39 9.8 M57.59 0 C61.99 2.13, 68.64 5.19, 67.39 9.8 M67.39 9.8 C65.54 16.45, 65.82 21.14, 67.39 29.39 M67.39 9.8 C67.11 17.73, 66.36 24.94, 67.39 29.39 M67.39 29.39 C69.18 34.37, 66.02 37.98, 57.59 39.18 M67.39 29.39 C66.11 38.13, 64.53 37.25, 57.59 39.18 M57.59 39.18 C47.92 39.06, 34 40.76, 9.8 39.18 M57.59 39.18 C47.89 39.99, 35.97 38.92, 9.8 39.18 M9.8 39.18 C1.54 41.18, 1.47 36.53, 0 29.39 M9.8 39.18 C2.89 37.82, 1.79 35.48, 0 29.39 M0 29.39 C2.13 25.37, -0.19 20.18, 0 9.8 M0 29.39 C0.06 23.16, -0.36 16.49, 0 9.8 M0 9.8 C0.63 1.99, 1.64 0.54, 9.8 0 M0 9.8 C0.14 2.23, 3.53 -0.82, 9.8 0" stroke="#1e1e1e" stroke-width="2" fill="none"></path></g><g transform="translate(484.5966796875 276.5833404541016) rotate(0 16.90234375 9.199999999999989)"><text x="16.90234375" y="0" font-family="Helvetica, Segoe UI Emoji" font-size="16px" fill="#1e1e1e" text-anchor="middle" style="white-space: pre;" direction="ltr" dominant-baseline="text-before-edge">build</text></g><g stroke-linecap="round" transform="translate(576.2994995117188 267.1725769042969) rotate(0 33.908111572265625 19.866195678710938)"><path d="M9.93 0 C29.68 0.44, 41.83 2.22, 57.88 0 C65.52 -0.85, 67.76 5.43, 67.82 9.93 C64.95 17.48, 67.56 27.5, 67.82 29.8 C66.74 36.66, 61.5 39.32, 57.88 39.73 C38.36 38.8, 23.16 37.35, 9.93 39.73 C4.86 38.19, 1.68 38.81, 0 29.8 C1.85 20.18, -1.16 14.26, 0 9.93 C1 1.18, 1.43 2.6, 9.93 0" stroke="none" stroke-width="0" fill="#ffec99"></path><path d="M9.93 0 C30.08 -1.24, 47.39 -1.18, 57.88 0 M9.93 0 C23.98 0.62, 38.35 -0.15, 57.88 0 M57.88 0 C65.44 -0.15, 67.7 1.85, 67.82 9.93 M57.88 0 C65.29 2.09, 70.06 4.45, 67.82 9.93 M67.82 9.93 C69.35 18.38, 67.48 22.74, 67.82 29.8 M67.82 9.93 C68.27 15.26, 67.96 21.72, 67.82 29.8 M67.82 29.8 C67.45 37.66, 63.91 39.63, 57.88 39.73 M67.82 29.8 C68.38 37.84, 63.77 40.08, 57.88 39.73 M57.88 39.73 C42.05 40.71, 23.81 40.24, 9.93 39.73 M57.88 39.73 C42.4 40.72, 25.75 39.29, 9.93 39.73 M9.93 39.73 C4.56 40.48, 1.41 37.49, 0 29.8 M9.93 39.73 C5.01 37.69, 0.42 36.91, 0 29.8 M0 29.8 C-1.13 25.37, -0.87 17.33, 0 9.93 M0 29.8 C0.34 22.94, 0.08 16.58, 0 9.93 M0 9.93 C-0.88 3.69, 3.1 0.57, 9.93 0 M0 9.93 C1.08 2.15, 3.93 -1.92, 9.93 0" stroke="#1e1e1e" stroke-width="2" fill="none"></path></g><g transform="translate(586.6333923339844 277.8387725830078) rotate(0 23.57421875 9.199999999999989)"><text x="23.57421875" y="0" font-family="Helvetica, Segoe UI Emoji" font-size="16px" fill="#1e1e1e" text-anchor="middle" style="white-space: pre;" direction="ltr" dominant-baseline="text-before-edge">deploy</text></g><g stroke-linecap="round" transform="translate(281.7520751953125 240.60708618164062) rotate(0 70.23880004882812 45)"><path d="M22.5 0 C54.89 -2.86, 91.83 -3.2, 117.98 0 C135.17 3.14, 139.34 10.83, 140.48 22.5 C141.34 33.58, 143.69 48.35, 140.48 67.5 C137.1 85.94, 134.94 89.81, 117.98 90 C88.75 91.51, 62.56 85.52, 22.5 90 C6.04 89.8, -2.13 85.05, 0 67.5 C-0.7 52.59, -0.86 35.97, 0 22.5 C-3.27 4.56, 9.12 1.6, 22.5 0" stroke="none" stroke-width="0" fill="#ffec99"></path><path d="M22.5 0 C47.35 2.27, 75.41 0.52, 117.98 0 M22.5 0 C44.05 0.07, 64.29 -0.88, 117.98 0 M117.98 0 C132.63 1.9, 142.01 7.7, 140.48 22.5 M117.98 0 C132.87 -1.26, 139.05 7.26, 140.48 22.5 M140.48 22.5 C141.22 34.97, 139.36 46.97, 140.48 67.5 M140.48 22.5 C139.96 33.56, 141.05 43.34, 140.48 67.5 M140.48 67.5 C140.49 82.31, 134.33 89.94, 117.98 90 M140.48 67.5 C138.18 82.5, 131.6 88.07, 117.98 90 M117.98 90 C78.61 88.84, 43.14 89.09, 22.5 90 M117.98 90 C86.94 89.19, 53.59 90.44, 22.5 90 M22.5 90 C9.43 89.7, -1.83 83.42, 0 67.5 M22.5 90 C8.63 88.78, 1.68 83.99, 0 67.5 M0 67.5 C1.82 52.36, -0.06 41.67, 0 22.5 M0 67.5 C-0.64 49.83, -0.42 32, 0 22.5 M0 22.5 C-0.83 6.62, 5.89 1.97, 22.5 0 M0 22.5 C-1.12 6.05, 7.27 -1.43, 22.5 0" stroke="#1e1e1e" stroke-width="2" fill="none"></path></g><g transform="translate(287.5025939941406 258.0070861816406) rotate(0 64.48828125 27.599999999999994)"><text x="64.48828125" y="0" font-family="Helvetica, Segoe UI Emoji" font-size="16px" fill="#1e1e1e" text-anchor="middle" style="white-space: pre;" direction="ltr" dominant-baseline="text-before-edge">env determination</text><text x="64.48828125" y="18.4" font-family="Helvetica, Segoe UI Emoji" font-size="16px" fill="#1e1e1e" text-anchor="middle" style="white-space: pre;" direction="ltr" dominant-baseline="text-before-edge">(based on branch </text><text x="64.48828125" y="36.8" font-family="Helvetica, Segoe UI Emoji" font-size="16px" fill="#1e1e1e" text-anchor="middle" style="white-space: pre;" direction="ltr" dominant-baseline="text-before-edge">name)</text></g><g stroke-linecap="round" transform="translate(212.73052978515625 417.95330810546875) rotate(0 231.13357543945312 96.87860107421875)"><path d="M32 0 C124.89 -0.79, 218.42 -0.83, 430.27 0 M430.27 0 C450.07 1.66, 461.52 10.78, 462.27 32 M462.27 32 C462.37 61.6, 461.61 89.97, 462.27 161.76 M462.27 161.76 C463.63 184.08, 453.16 193.04, 430.27 193.76 M430.27 193.76 C319.82 195.89, 211.45 195.29, 32 193.76 M32 193.76 C10.89 193.45, -1.62 183.7, 0 161.76 M0 161.76 C1.01 120.14, 1.56 77.53, 0 32 M0 32 C0.35 9.91, 10.77 0.65, 32 0" stroke="#1e1e1e" stroke-width="2.5" fill="none" stroke-dasharray="1.5 8"></path></g><g transform="translate(185.40029302060248 427.5504530534913) rotate(0 172.85025024414062 19.513936313642148)"><text x="172.85025024414062" y="0" font-family="Helvetica, Segoe UI Emoji" font-size="16.96864027273233px" fill="#1e1e1e" text-anchor="middle" style="white-space: pre;" direction="ltr" dominant-baseline="text-before-edge">env setting(includeing en variable, </text><text x="172.85025024414062" y="19.513936313642176" font-family="Helvetica, Segoe UI Emoji" font-size="16.96864027273233px" fill="#1e1e1e" text-anchor="middle" style="white-space: pre;" direction="ltr" dominant-baseline="text-before-edge">         build, deploy, and function configuration)</text></g><g stroke-linecap="round" transform="translate(224.73367309570312 512.376708984375) rotate(0 54.007965087890625 35)"><path d="M17.5 0 C38.7 2.15, 59.6 -0.75, 90.52 0 M17.5 0 C40.12 -0.51, 63.49 -0.23, 90.52 0 M90.52 0 C103.79 -1.06, 107.68 4.23, 108.02 17.5 M90.52 0 C102.85 -1.37, 108.54 7.58, 108.02 17.5 M108.02 17.5 C107.51 27.01, 106.57 36.74, 108.02 52.5 M108.02 17.5 C107.59 28.03, 107.83 40.31, 108.02 52.5 M108.02 52.5 C106.72 62.59, 100.72 70.68, 90.52 70 M108.02 52.5 C107.86 65.68, 101.73 68.22, 90.52 70 M90.52 70 C65.92 70.2, 43.78 69.87, 17.5 70 M90.52 70 C68.21 70.27, 46.34 69.93, 17.5 70 M17.5 70 C7.74 70.09, -1.18 62.78, 0 52.5 M17.5 70 C5.79 70.04, -0.32 64.86, 0 52.5 M0 52.5 C1.09 41.38, 0.17 30.92, 0 17.5 M0 52.5 C0.73 39.05, 0.76 28.02, 0 17.5 M0 17.5 C0.46 6.36, 7.12 -1.67, 17.5 0 M0 17.5 C0.08 7.85, 7.27 -1.68, 17.5 0" stroke="#f08c00" stroke-width="2" fill="none"></path></g><g transform="translate(241.39398193359375 528.976708984375) rotate(0 37.34765625 18.399999999999977)"><text x="37.34765625" y="0" font-family="Helvetica, Segoe UI Emoji" font-size="16px" fill="#f08c00" text-anchor="middle" style="white-space: pre;" direction="ltr" dominant-baseline="text-before-edge">command </text><text x="37.34765625" y="18.4" font-family="Helvetica, Segoe UI Emoji" font-size="16px" fill="#f08c00" text-anchor="middle" style="white-space: pre;" direction="ltr" dominant-baseline="text-before-edge">option</text></g><g stroke-linecap="round" transform="translate(340.70111083984375 488.50946044921875) rotate(0 95.74057006835938 50)"><path d="M120 12.75 C134.28 19.05, 145.12 25.83, 167.48 38.25 M120 12.75 C131.67 19.75, 143.43 24.16, 167.48 38.25 M167.48 38.25 C189.62 51.1, 192.27 50.72, 167.48 63.75 M167.48 38.25 C193.56 50.26, 192.08 53.1, 167.48 63.75 M167.48 63.75 C158.37 70.84, 146.85 75.69, 120 87.25 M167.48 63.75 C156.57 68.17, 146.63 73.97, 120 87.25 M120 87.25 C97.26 101.94, 97.78 101.97, 72 87.25 M120 87.25 C97.06 100.26, 96.73 98.07, 72 87.25 M72 87.25 C55.47 76.27, 35.58 68.31, 24 63.75 M72 87.25 C53.9 79.36, 36.79 70.7, 24 63.75 M24 63.75 C0.67 51.85, -1.36 52.78, 24 38.25 M24 63.75 C-0.92 52.43, 0.33 51.34, 24 38.25 M24 38.25 C33.97 31.7, 45.93 26.37, 72 12.75 M24 38.25 C35.64 31.59, 49.04 25.58, 72 12.75 M72 12.75 C94.52 1.13, 97.92 0.99, 120 12.75 M72 12.75 C94.51 0.77, 96.21 1.49, 120 12.75" stroke="#e03131" stroke-width="2" fill="none"></path></g><g transform="translate(396.70420837402344 520.1094604492188) rotate(0 39.8671875 18.399999999999977)"><text x="39.8671875" y="0" font-family="Helvetica, Segoe UI Emoji" font-size="16px" fill="#e03131" text-anchor="middle" style="white-space: pre;" direction="ltr" dominant-baseline="text-before-edge">netlify.toml </text><text x="39.8671875" y="18.4" font-family="Helvetica, Segoe UI Emoji" font-size="16px" fill="#e03131" text-anchor="middle" style="white-space: pre;" direction="ltr" dominant-baseline="text-before-edge">file</text></g><g stroke-linecap="round" transform="translate(538.9945678710938 492.4556884765625) rotate(0 55.843841552734375 43.860992431640625)"><path d="M63.87 0.02 C72.78 0.59, 82.36 5.09, 89.69 9.75 C97.02 14.41, 104.24 21.33, 107.85 27.98 C111.46 34.62, 112.78 42.59, 111.35 49.64 C109.93 56.68, 104.97 64.46, 99.32 70.23 C93.67 76.01, 86.11 81.38, 77.47 84.26 C68.84 87.14, 56.82 88.41, 47.49 87.5 C38.17 86.59, 28.72 83.54, 21.54 78.83 C14.35 74.11, 8.02 66.03, 4.37 59.2 C0.72 52.38, -1.76 45.1, -0.35 37.86 C1.07 30.63, 6.93 21.61, 12.86 15.79 C18.8 9.97, 25.68 5.44, 35.27 2.94 C44.86 0.45, 63.26 0.45, 70.41 0.82 C77.56 1.18, 78.29 4.34, 78.16 5.13 M42.22 2.7 C50.49 0.25, 61.6 1.03, 70.46 2.76 C79.32 4.5, 89.01 8.34, 95.36 13.12 C101.7 17.9, 106.34 24.36, 108.54 31.44 C110.74 38.51, 110.96 48.6, 108.55 55.57 C106.14 62.55, 100.3 68.36, 94.09 73.27 C87.88 78.18, 80 83.1, 71.29 85.04 C62.58 86.98, 50.81 86.33, 41.84 84.9 C32.88 83.46, 24.28 81.4, 17.49 76.44 C10.71 71.48, 3.84 62.57, 1.13 55.14 C-1.57 47.7, -1.41 38.76, 1.25 31.83 C3.91 24.91, 10.66 18.51, 17.09 13.6 C23.52 8.69, 35.8 4, 39.83 2.38 C43.86 0.76, 40.69 3.24, 41.27 3.86" stroke="#1971c2" stroke-width="2" fill="none"></path></g><g transform="translate(562.4016316243825 527.1022757302181) rotate(0 32.44921874999994 9.199999999999989)"><text x="32.44921875" y="0" font-family="Helvetica, Segoe UI Emoji" font-size="16px" fill="#1971c2" text-anchor="middle" style="white-space: pre;" direction="ltr" dominant-baseline="text-before-edge">Netlify UI</text></g><g stroke-linecap="round"><g transform="translate(347.03435911341114 413.1590956316163) rotate(0 1.4839474677177122 -40.77600472498784)"><path d="M-0.45 -0.34 C-0.28 -14.21, 1.58 -68.78, 2.12 -82.35 M1.52 -1.56 C1.97 -15.38, 4.32 -68.07, 4.39 -81.23" stroke="#1e1e1e" stroke-width="2" fill="none"></path></g><g transform="translate(347.03435911341114 413.1590956316163) rotate(0 1.4839474677177122 -40.77600472498784)"><path d="M13.87 -52.77 C9.38 -65.36, 4.9 -75.4, 4.39 -81.23 M13.87 -52.77 C11.26 -60.37, 9.23 -69.26, 4.39 -81.23" stroke="#1e1e1e" stroke-width="2" fill="none"></path></g><g transform="translate(347.03435911341114 413.1590956316163) rotate(0 1.4839474677177122 -40.77600472498784)"><path d="M-6.65 -53.34 C-3.1 -65.63, 0.46 -75.44, 4.39 -81.23 M-6.65 -53.34 C-3.48 -60.79, 0.28 -69.52, 4.39 -81.23" stroke="#1e1e1e" stroke-width="2" fill="none"></path></g></g><mask></mask><g stroke-linecap="round" transform="translate(244.53692626953125 175.72628784179688) rotate(0 328.0703125 103.02890014648438)"><path d="M32 0 C223.56 1.86, 414.97 0.92, 624.14 0 M624.14 0 C646.53 1.81, 658.13 11.59, 656.14 32 M656.14 32 C654.94 74.45, 657.92 114.62, 656.14 174.06 M656.14 174.06 C656.49 195.47, 643.72 204.47, 624.14 206.06 M624.14 206.06 C415.23 203.53, 204.74 203.23, 32 206.06 M32 206.06 C11.56 207.53, 0.9 194.76, 0 174.06 M0 174.06 C-0.07 136.46, -0.98 97.36, 0 32 M0 32 C1.49 10.57, 12.64 -1.41, 32 0" stroke="#1e1e1e" stroke-width="2.5" fill="none" stroke-dasharray="1.5 8"></path></g><g transform="translate(211.71521759033203 191.36627197265625) rotate(0 52.90234375 9.199999999999989)"><text x="52.90234375" y="0" font-family="Helvetica, Segoe UI Emoji" font-size="16px" fill="#1e1e1e" text-anchor="middle" style="white-space: pre;" direction="ltr" dominant-baseline="text-before-edge">     Netlify Core</text></g><g transform="translate(139.1721309480863 258.52703857421875) rotate(0 48.3203125 9.199999999999989)"><text x="48.3203125" y="0" font-family="Helvetica, Segoe UI Emoji" font-size="16px" fill="#1e1e1e" text-anchor="middle" style="white-space: pre;" direction="ltr" dominant-baseline="text-before-edge">      WebHook</text></g><g stroke-linecap="round" transform="translate(676.6267700195312 256.3594970703125) rotate(0 44.674896240234375 26.194091796875)"><path d="M13.1 0 C34.24 1.36, 59.27 -2.99, 76.25 0 C84.26 -1.69, 91.46 5.34, 89.35 13.1 C88.37 19.78, 89.97 26.48, 89.35 39.29 C92.38 48.34, 84.24 52.2, 76.25 52.39 C60.26 53.17, 42.82 51.03, 13.1 52.39 C2.83 49.05, 2.04 51.02, 0 39.29 C-3.57 31.43, -2.69 21.51, 0 13.1 C-1.73 4.32, 7.85 -2.83, 13.1 0" stroke="none" stroke-width="0" fill="#ffec99"></path><path d="M13.1 0 C31.1 -1.6, 49.88 -1.31, 76.25 0 M13.1 0 C32.28 0.57, 50.04 0.21, 76.25 0 M76.25 0 C86.64 -1.64, 90.23 3.97, 89.35 13.1 M76.25 0 C86.82 -1.62, 89.53 2.87, 89.35 13.1 M89.35 13.1 C90.65 19.61, 90.61 22.13, 89.35 39.29 M89.35 13.1 C89.83 21.83, 88.79 30.37, 89.35 39.29 M89.35 39.29 C90.46 49.71, 84.28 53.1, 76.25 52.39 M89.35 39.29 C91.55 46.71, 82.87 52.49, 76.25 52.39 M76.25 52.39 C60.66 53.87, 47.52 51.27, 13.1 52.39 M76.25 52.39 C61.86 51.9, 45.19 52.25, 13.1 52.39 M13.1 52.39 C3.83 53.86, 1.42 46.17, 0 39.29 M13.1 52.39 C3.43 53.19, 0.27 46.05, 0 39.29 M0 39.29 C-0.34 30.01, -1.14 18.04, 0 13.1 M0 39.29 C0.17 32.46, -0.43 25.26, 0 13.1 M0 13.1 C1.6 2.51, 5.14 1.64, 13.1 0 M0 13.1 C-1.45 2.08, 2.73 -2.06, 13.1 0" stroke="#1e1e1e" stroke-width="2" fill="none"></path></g><g transform="translate(689.2821350097656 264.1535888671875) rotate(0 32.01953125 18.400000000000006)"><text x="32.01953125" y="0" font-family="Helvetica, Segoe UI Emoji" font-size="16px" fill="#1e1e1e" text-anchor="middle" style="white-space: pre;" direction="ltr" dominant-baseline="text-before-edge">set up  </text><text x="32.01953125" y="18.4" font-family="Helvetica, Segoe UI Emoji" font-size="16px" fill="#1e1e1e" text-anchor="middle" style="white-space: pre;" direction="ltr" dominant-baseline="text-before-edge">functions</text></g><g stroke-linecap="round"><g transform="translate(426.548583984375 283.10975818884737) rotate(0 20.6761474609375 0.24068364971694223)"><path d="M-0.29 0.34 C6.72 0.5, 34.87 0.34, 41.81 0.45 M0.56 0.04 C7.55 0.33, 34.87 1.1, 41.62 1.13" stroke="#1e1e1e" stroke-width="2" fill="none"></path></g><g transform="translate(426.548583984375 283.10975818884737) rotate(0 20.6761474609375 0.24068364971694223)"><path d="M22.06 7.84 C27.73 7.01, 32.05 4.51, 41.62 1.13 M22.06 7.84 C29.52 4.97, 37.91 2.16, 41.62 1.13" stroke="#1e1e1e" stroke-width="2" fill="none"></path></g><g transform="translate(426.548583984375 283.10975818884737) rotate(0 20.6761474609375 0.24068364971694223)"><path d="M22.32 -6.3 C27.86 -3.51, 32.12 -2.38, 41.62 1.13 M22.32 -6.3 C29.74 -3.58, 38.03 -0.8, 41.62 1.13" stroke="#1e1e1e" stroke-width="2" fill="none"></path></g></g><mask></mask><g stroke-linecap="round"><g transform="translate(539.6239624023439 284.17999267578136) rotate(0 17.8377685546875 0.2580630015194174)"><path d="M-0.45 -0.38 C5.67 -0.38, 30.26 0.06, 36.21 0.2 M0.32 0.62 C6.46 0.67, 30.05 0.66, 36.05 0.74" stroke="#1e1e1e" stroke-width="2" fill="none"></path></g><g transform="translate(539.6239624023439 284.17999267578136) rotate(0 17.8377685546875 0.2580630015194174)"><path d="M19.25 6.75 C22.07 6.45, 25.61 3.65, 36.05 0.74 M19.25 6.75 C24.52 4.9, 29.37 3.46, 36.05 0.74" stroke="#1e1e1e" stroke-width="2" fill="none"></path></g><g transform="translate(539.6239624023439 284.17999267578136) rotate(0 17.8377685546875 0.2580630015194174)"><path d="M19.32 -5.46 C22.14 -3.26, 25.67 -3.55, 36.05 0.74 M19.32 -5.46 C24.59 -3.7, 29.42 -1.53, 36.05 0.74" stroke="#1e1e1e" stroke-width="2" fill="none"></path></g></g><mask></mask><g stroke-linecap="round"><g transform="translate(645.1702270507812 286.6041675279969) rotate(0 14.670196533203125 -0.3004650680547343)"><path d="M-0.53 -0.39 C4.45 -0.61, 24.59 -0.79, 29.54 -0.75 M0.2 0.59 C5.15 0.7, 24.45 0.13, 29.22 -0.12" stroke="#1e1e1e" stroke-width="2" fill="none"></path></g><g transform="translate(645.1702270507812 286.6041675279969) rotate(0 14.670196533203125 -0.3004650680547343)"><path d="M15.63 5.42 C18.38 4.42, 22 2.64, 29.22 -0.12 M15.63 5.42 C20.9 3.49, 26.08 0.99, 29.22 -0.12" stroke="#1e1e1e" stroke-width="2" fill="none"></path></g><g transform="translate(645.1702270507812 286.6041675279969) rotate(0 14.670196533203125 -0.3004650680547343)"><path d="M15.25 -4.61 C18.13 -3.18, 21.85 -2.53, 29.22 -0.12 M15.25 -4.61 C20.67 -2.66, 26 -1.28, 29.22 -0.12" stroke="#1e1e1e" stroke-width="2" fill="none"></path></g></g><mask></mask><g stroke-linecap="round"><g transform="translate(168.6843094619776 283.7513164575938) rotate(0 58.70836711959714 1.1788156481562169)"><path d="M0.26 -0.36 C19.65 0.01, 97.34 2.18, 116.68 2.82 M-1.06 -1.59 C18.69 -1.65, 99.06 0.39, 119.01 0.94" stroke="#1e1e1e" stroke-width="2" fill="none"></path></g><g transform="translate(168.6843094619776 283.7513164575938) rotate(0 58.70836711959714 1.1788156481562169)"><path d="M90.57 10.47 C99.27 6.05, 109.98 2.31, 119.01 0.94 M90.57 10.47 C101.15 7.28, 114.02 3.59, 119.01 0.94" stroke="#1e1e1e" stroke-width="2" fill="none"></path></g><g transform="translate(168.6843094619776 283.7513164575938) rotate(0 58.70836711959714 1.1788156481562169)"><path d="M91.1 -10.05 C99.73 -7.72, 110.27 -4.72, 119.01 0.94 M91.1 -10.05 C101.31 -5.16, 113.98 -0.77, 119.01 0.94" stroke="#1e1e1e" stroke-width="2" fill="none"></path></g></g><mask></mask><g stroke-linecap="round" transform="translate(422.011474609375 75.3095703125) rotate(0 126.03524780273438 33.56498718261719)"><path d="M16.78 0 C100.72 1.05, 187.26 -0.66, 235.29 0 M235.29 0 C245.98 0.42, 253.64 6.08, 252.07 16.78 M252.07 16.78 C252.52 30.83, 252.33 42.29, 252.07 50.35 M252.07 50.35 C250.1 61.06, 245.42 66.98, 235.29 67.13 M235.29 67.13 C167.96 67.3, 97.34 68.22, 16.78 67.13 M16.78 67.13 C7.51 66.15, -1.4 62.83, 0 50.35 M0 50.35 C0.13 38.1, 0.55 27.86, 0 16.78 M0 16.78 C0.12 7.55, 6.47 1.78, 16.78 0" stroke="#1e1e1e" stroke-width="2.5" fill="none" stroke-dasharray="1.5 8"></path></g><g transform="translate(431.7494201660156 80.02664184570312) rotate(0 25.3515625 9.200000000000003)"><text x="25.3515625" y="0" font-family="Helvetica, Segoe UI Emoji" font-size="16px" fill="#1e1e1e" text-anchor="middle" style="white-space: pre;" direction="ltr" dominant-baseline="text-before-edge">plugins</text></g><g stroke-linecap="round" transform="translate(469.832763671875 103.44305419921875) rotate(0 17.1397705078125 14.15521240234375)"><path d="M22.5 3.75 C24.85 5.33, 25.83 7.72, 29.78 11.25 M22.5 3.75 C23.77 5.46, 25.8 6.84, 29.78 11.25 M29.78 11.25 C34.65 14.42, 33.33 15.38, 29.78 18.75 M29.78 11.25 C32.18 14.22, 33.39 15.63, 29.78 18.75 M29.78 18.75 C27.22 20.2, 24.78 23.07, 22.5 24.56 M29.78 18.75 C26.83 20.31, 24.26 23.2, 22.5 24.56 M22.5 24.56 C18.46 27.08, 17.27 28.45, 13.5 24.56 M22.5 24.56 C18.89 26.86, 17.31 30.03, 13.5 24.56 M13.5 24.56 C10.86 23.35, 8.03 21.53, 4.5 18.75 M13.5 24.56 C11.07 22.41, 8.47 21.34, 4.5 18.75 M4.5 18.75 C0.27 14.26, 1.2 16.61, 4.5 11.25 M4.5 18.75 C0.67 15.18, -1.85 17.09, 4.5 11.25 M4.5 11.25 C6.39 10.21, 8.84 6.86, 13.5 3.75 M4.5 11.25 C8.41 8.95, 11.05 6.2, 13.5 3.75 M13.5 3.75 C16.44 -1.98, 16.18 -1.66, 22.5 3.75 M13.5 3.75 C18.52 0.74, 17.36 1.41, 22.5 3.75" stroke="#2f9e44" stroke-width="1" fill="none"></path></g><g stroke-linecap="round" transform="translate(525.0146484375 103.85940551757812) rotate(0 16.314117431640625 11.332351684570312)"><path d="M19.69 0.14 C23.08 0.57, 27.72 3, 29.83 5.04 C31.94 7.08, 32.67 9.99, 32.35 12.36 C32.04 14.73, 30.24 17.5, 27.96 19.25 C25.67 21, 21.99 22.52, 18.64 22.85 C15.29 23.18, 10.9 22.6, 7.86 21.21 C4.82 19.82, 1.52 16.86, 0.4 14.5 C-0.72 12.13, -0.23 9.22, 1.15 7.01 C2.53 4.8, 5.36 2.29, 8.68 1.22 C12.01 0.15, 18.95 0.72, 21.1 0.57 C23.24 0.43, 21.81 0.21, 21.58 0.37 M15.76 -0.03 C19.05 -0.27, 23.49 0.33, 26.35 1.69 C29.22 3.06, 32.09 5.69, 32.92 8.18 C33.75 10.67, 33.06 14.28, 31.35 16.64 C29.64 19.01, 25.91 21.47, 22.67 22.36 C19.42 23.25, 15.28 22.74, 11.87 21.99 C8.45 21.24, 4.03 20, 2.18 17.86 C0.32 15.72, 0.22 11.62, 0.74 9.15 C1.26 6.68, 2.71 4.63, 5.29 3.05 C7.88 1.48, 14.49 0.09, 16.24 -0.3 C17.99 -0.68, 15.77 0.5, 15.79 0.72" stroke="#1971c2" stroke-width="1" fill="none"></path></g><g stroke-linecap="round" transform="translate(566.6463012695312 88.85504150390625) rotate(0 15.12432861328125 11.199066162109375)"><path d="M5.6 0 C12.6 -0.99, 15 1.33, 24.65 0 M5.6 0 C11.1 0.58, 18.61 -0.57, 24.65 0 M24.65 0 C28.49 1.15, 30.46 0.95, 30.25 5.6 M24.65 0 C26.79 -2.16, 30.85 0.64, 30.25 5.6 M30.25 5.6 C29.35 8.65, 30.88 12.4, 30.25 16.8 M30.25 5.6 C30.51 8.19, 29.86 10.7, 30.25 16.8 M30.25 16.8 C31.39 19.54, 27.34 22.57, 24.65 22.4 M30.25 16.8 C28.41 19.75, 27.53 22.5, 24.65 22.4 M24.65 22.4 C18.14 22.37, 13.53 24.32, 5.6 22.4 M24.65 22.4 C20.79 23.27, 16.01 21.83, 5.6 22.4 M5.6 22.4 C0.4 22.16, 1.25 19.65, 0 16.8 M5.6 22.4 C2.21 23.72, -1.58 22.69, 0 16.8 M0 16.8 C-0.87 12.77, -0.78 9.58, 0 5.6 M0 16.8 C-0.06 13.57, 0.16 11.26, 0 5.6 M0 5.6 C-0.85 3.38, 3.12 -0.22, 5.6 0 M0 5.6 C0.7 2.31, 1.85 1.25, 5.6 0" stroke="#1e1e1e" stroke-width="1" fill="none"></path></g><g stroke-linecap="round" transform="translate(611.9805908203125 98.64288330078125) rotate(0 15.22430419921875 17.675048828125)"><path d="M20 4.5 C22.7 7.41, 24.15 11.86, 26.45 13.5 M20 4.5 C22.44 7.74, 24.97 11.28, 26.45 13.5 M26.45 13.5 C29.96 19.68, 31.97 16.17, 26.45 22.5 M26.45 13.5 C32.28 16.05, 29.52 17.09, 26.45 22.5 M26.45 22.5 C25.01 23.87, 23.23 27.74, 20 30.85 M26.45 22.5 C25.35 25.11, 23.49 26.96, 20 30.85 M20 30.85 C17.99 35.98, 17.98 34.55, 12 30.85 M20 30.85 C14.85 35.79, 16.16 34.37, 12 30.85 M12 30.85 C8.28 27.33, 6.05 23.93, 4 22.5 M12 30.85 C9.77 28.16, 7.44 25.2, 4 22.5 M4 22.5 C0.43 18.91, -1.12 17.64, 4 13.5 M4 22.5 C0.04 16.93, 0 18.71, 4 13.5 M4 13.5 C5.83 10.52, 8.07 8.74, 12 4.5 M4 13.5 C7.22 11.03, 8.86 7.8, 12 4.5 M12 4.5 C15.93 -0.64, 14.73 0.87, 20 4.5 M12 4.5 C15.71 -0.98, 17.67 -1.53, 20 4.5" stroke="#e8590c" stroke-width="1" fill="none"></path></g><g stroke-linecap="round"><g transform="translate(499.25323486328125 144.68673706054688) rotate(0 0.9139404296875 58.87229919433594)"><path d="M0.75 -0.3 C1.16 19.53, 2.53 98.31, 2.71 118.05 M-0.31 -1.5 C0 18.03, 1.99 96.5, 2.22 116.08" stroke="#1e1e1e" stroke-width="2" fill="none"></path></g><g transform="translate(499.25323486328125 144.68673706054688) rotate(0 0.9139404296875 58.87229919433594)"><path d="M-8.59 88.1 C-5.86 98.42, -1.41 105.91, 2.22 116.08 M-8.59 88.1 C-4.4 96.48, -1.48 107.39, 2.22 116.08" stroke="#1e1e1e" stroke-width="2" fill="none"></path></g><g transform="translate(499.25323486328125 144.68673706054688) rotate(0 0.9139404296875 58.87229919433594)"><path d="M11.93 87.7 C8.11 98.28, 6.02 105.9, 2.22 116.08 M11.93 87.7 C9.28 96.15, 5.37 107.2, 2.22 116.08" stroke="#1e1e1e" stroke-width="2" fill="none"></path></g></g><mask></mask><g stroke-linecap="round" transform="translate(932.9002075195312 243.41812133789062) rotate(0 56.459136962890625 37.800567626953125)"><path d="M35.86 2.73 C44.03 0.01, 55.69 -0.22, 65.1 0.85 C74.52 1.92, 85.08 5.22, 92.35 9.15 C99.63 13.08, 105.51 18.66, 108.75 24.42 C111.99 30.19, 113.12 37.42, 111.79 43.73 C110.45 50.05, 106.53 57.3, 100.74 62.3 C94.95 67.29, 85.88 71.42, 77.04 73.72 C68.2 76.02, 56.92 77.11, 47.7 76.1 C38.47 75.09, 28.95 71.72, 21.71 67.66 C14.46 63.59, 7.71 57.49, 4.22 51.7 C0.74 45.91, -0.56 39.02, 0.79 32.89 C2.13 26.76, 5.17 20.32, 12.28 14.92 C19.39 9.51, 37.24 2.88, 43.45 0.48 C49.66 -1.92, 49.47 -0.32, 49.54 0.51 M78.38 2.68 C86.8 4.65, 95.63 9.34, 101.14 14.53 C106.65 19.72, 110.56 27.32, 111.47 33.79 C112.37 40.27, 110.2 47.77, 106.58 53.37 C102.96 58.97, 97.15 63.64, 89.76 67.39 C82.36 71.13, 71.84 75.23, 62.22 75.82 C52.6 76.41, 40.67 73.74, 32.03 70.93 C23.39 68.12, 15.43 63.74, 10.36 58.98 C5.3 54.22, 2.35 48.53, 1.64 42.35 C0.93 36.17, 2.49 27.63, 6.11 21.9 C9.72 16.16, 15.9 11.4, 23.33 7.95 C30.77 4.5, 41.27 1.88, 50.73 1.2 C60.2 0.51, 75.62 3.24, 80.12 3.85 C84.61 4.46, 78.26 4.61, 77.69 4.85" stroke="none" stroke-width="0" fill="#a5d8ff"></path><path d="M40.8 2.1 C48.83 -0.24, 59.47 -0.74, 68.34 0.69 C77.21 2.12, 86.84 6.46, 94.01 10.7 C101.18 14.94, 108.33 20.3, 111.35 26.15 C114.36 32, 114.41 39.63, 112.1 45.79 C109.79 51.95, 104.09 58.32, 97.49 63.11 C90.89 67.91, 81.58 72.82, 72.52 74.58 C63.45 76.34, 52.1 75.02, 43.12 73.66 C34.14 72.29, 25.51 70.62, 18.63 66.37 C11.74 62.13, 4.71 54.23, 1.81 48.2 C-1.09 42.17, -0.85 36.13, 1.24 30.2 C3.34 24.27, 7.02 17.42, 14.36 12.62 C21.71 7.81, 39.04 3.42, 45.31 1.38 C51.57 -0.67, 51.73 -0.16, 51.94 0.35 M60.26 -0.44 C69.37 -0.81, 79.34 2.86, 87.21 6.45 C95.07 10.04, 103.29 15.5, 107.44 21.09 C111.59 26.68, 112.59 33.61, 112.11 40 C111.64 46.39, 109.76 54.26, 104.6 59.42 C99.43 64.58, 89.83 68.33, 81.11 70.97 C72.4 73.6, 61.67 75.72, 52.29 75.23 C42.91 74.74, 32.43 71.24, 24.81 68.01 C17.19 64.79, 10.72 61.38, 6.58 55.87 C2.43 50.37, -0.72 41.4, -0.07 34.97 C0.59 28.54, 5.5 22.7, 10.51 17.3 C15.51 11.9, 21.9 5.26, 29.98 2.58 C38.07 -0.1, 53.81 1.44, 59.02 1.22 C64.22 0.99, 60.89 0.53, 61.2 1.21" stroke="#1e1e1e" stroke-width="2" fill="none"></path></g><g transform="translate(962.760924626022 262.58965126312455) rotate(0 26.67578125 18.400000000000006)"><text x="26.67578125" y="0" font-family="Helvetica, Segoe UI Emoji" font-size="16px" fill="#1e1e1e" text-anchor="middle" style="white-space: pre;" direction="ltr" dominant-baseline="text-before-edge">App </text><text x="26.67578125" y="18.4" font-family="Helvetica, Segoe UI Emoji" font-size="16px" fill="#1e1e1e" text-anchor="middle" style="white-space: pre;" direction="ltr" dominant-baseline="text-before-edge">runtime</text></g><g stroke-linecap="round"><g transform="translate(683.4496459960938 106.69384765625) rotate(0 152.85775101937588 68.27589416503906)"><path d="M-0.56 0.36 C43.96 2.66, 214.95 -9.07, 266.19 13.53 C317.42 36.14, 300.3 115.55, 306.87 136 M1.35 -0.5 C45.88 1.44, 214.88 -11.32, 265.77 11.6 C316.66 34.52, 300.04 116.1, 306.7 137.03" stroke="#1e1e1e" stroke-width="2" fill="none"></path></g><g transform="translate(683.4496459960938 106.69384765625) rotate(0 152.85775101937588 68.27589416503906)"><path d="M294.57 109.59 C297.81 117.44, 300.51 123.77, 306.7 137.03 M294.57 109.59 C297.57 116.03, 300.82 124.27, 306.7 137.03" stroke="#1e1e1e" stroke-width="2" fill="none"></path></g><g transform="translate(683.4496459960938 106.69384765625) rotate(0 152.85775101937588 68.27589416503906)"><path d="M315.04 108.21 C313.73 116.27, 311.87 122.91, 306.7 137.03 M315.04 108.21 C312.84 114.95, 310.89 123.54, 306.7 137.03" stroke="#1e1e1e" stroke-width="2" fill="none"></path></g></g><mask></mask><g transform="translate(690.9856948852539 77.59713745117188) rotate(0 94.70703125 9.200000000000003)"><text x="94.70703125" y="0" font-family="Helvetica, Segoe UI Emoji" font-size="16px" fill="#1e1e1e" text-anchor="middle" style="white-space: pre;" direction="ltr" dominant-baseline="text-before-edge">runtime plugins like sentry </text></g><g transform="translate(507.80541229248047 190.15115356445312) rotate(0 104.9453125 9.199999999999989)"><text x="104.9453125" y="0" font-family="Helvetica, Segoe UI Emoji" font-size="16px" fill="#1e1e1e" text-anchor="middle" style="white-space: pre;" direction="ltr" dominant-baseline="text-before-edge">buildtime plugins like sonaQB</text></g><g stroke-linecap="round" transform="translate(794.6304931640625 250.92755126953125) rotate(0 42.5018310546875 35)"><path d="M17.5 0 C29.21 -2.05, 43.56 1.68, 67.5 0 C80.1 3.39, 85.96 2.95, 85 17.5 C84.13 33.6, 85.94 46.21, 85 52.5 C87.56 63.04, 80.23 73.39, 67.5 70 C59.35 73.19, 47.06 71.84, 17.5 70 C8.02 70.68, 1.73 67.28, 0 52.5 C0.7 40.75, -1.49 29.89, 0 17.5 C-2.97 8.73, 3.58 -2.83, 17.5 0" stroke="none" stroke-width="0" fill="#ffec99"></path><path d="M17.5 0 C32.41 -0.02, 48.52 0.51, 67.5 0 M17.5 0 C36.06 -0.49, 51.86 1.08, 67.5 0 M67.5 0 C79.6 0.73, 84.04 7.35, 85 17.5 M67.5 0 C79.31 1.97, 84.36 6.3, 85 17.5 M85 17.5 C86.13 26.21, 83.59 38.97, 85 52.5 M85 17.5 C85.69 31.53, 84.67 44.69, 85 52.5 M85 52.5 C86.2 62.77, 77.5 69.97, 67.5 70 M85 52.5 C84.36 62.36, 80.19 67.78, 67.5 70 M67.5 70 C53.96 70.66, 36.45 70.61, 17.5 70 M67.5 70 C56.29 69.49, 45.5 69.95, 17.5 70 M17.5 70 C7.34 70.91, -1.6 64.92, 0 52.5 M17.5 70 C3.73 71.38, -1.91 64.97, 0 52.5 M0 52.5 C-0.15 41.54, -1.5 32.49, 0 17.5 M0 52.5 C0.71 44.43, -0.23 35, 0 17.5 M0 17.5 C0.9 5.89, 5.96 0.04, 17.5 0 M0 17.5 C1.53 7.09, 5.66 1.63, 17.5 0" stroke="#1e1e1e" stroke-width="2" fill="none"></path></g><g transform="translate(806.89794921875 258.3275512695312) rotate(0 30.234375 27.599999999999994)"><text x="30.234375" y="0" font-family="Helvetica, Segoe UI Emoji" font-size="16px" fill="#1e1e1e" text-anchor="middle" style="white-space: pre;" direction="ltr" dominant-baseline="text-before-edge">set up </text><text x="30.234375" y="18.4" font-family="Helvetica, Segoe UI Emoji" font-size="16px" fill="#1e1e1e" text-anchor="middle" style="white-space: pre;" direction="ltr" dominant-baseline="text-before-edge">network </text><text x="30.234375" y="36.8" font-family="Helvetica, Segoe UI Emoji" font-size="16px" fill="#1e1e1e" text-anchor="middle" style="white-space: pre;" direction="ltr" dominant-baseline="text-before-edge">gate</text></g><g stroke-linecap="round"><g transform="translate(767.6455688476565 281.1017364926522) rotate(0 15.184906005859261 0.22559049390827113)"><path d="M-0.44 -0.33 C4.69 -0.4, 25.34 -0.07, 30.53 0.02 M0.34 0.68 C5.43 0.64, 25.15 0.5, 30.18 0.5" stroke="#1e1e1e" stroke-width="2" fill="none"></path></g><g transform="translate(767.6455688476565 281.1017364926522) rotate(0 15.184906005859261 0.22559049390827113)"><path d="M15.94 5.75 C19.1 4.69, 22.61 3.57, 30.18 0.5 M15.94 5.75 C19.57 4.53, 22.93 2.91, 30.18 0.5" stroke="#1e1e1e" stroke-width="2" fill="none"></path></g><g transform="translate(767.6455688476565 281.1017364926522) rotate(0 15.184906005859261 0.22559049390827113)"><path d="M15.89 -4.63 C19.1 -3.04, 22.63 -1.5, 30.18 0.5 M15.89 -4.63 C19.49 -3.24, 22.86 -2.25, 30.18 0.5" stroke="#1e1e1e" stroke-width="2" fill="none"></path></g></g><mask></mask><g stroke-linecap="round"><g transform="translate(884.118896484375 281.41267315508134) rotate(0 23.891117441214874 -0.2070045553440707)"><path d="M0.11 -0.36 C8.1 -0.4, 39.42 -0.63, 47.41 -0.65 M-0.49 0.64 C7.71 0.71, 40.4 0.02, 48.46 -0.08" stroke="#1e1e1e" stroke-width="2" fill="none"></path></g><g transform="translate(884.118896484375 281.41267315508134) rotate(0 23.891117441214874 -0.2070045553440707)"><path d="M26.15 8.47 C30.22 5.98, 35.13 5.34, 48.46 -0.08 M26.15 8.47 C32.12 5.67, 38.55 3.23, 48.46 -0.08" stroke="#1e1e1e" stroke-width="2" fill="none"></path></g><g transform="translate(884.118896484375 281.41267315508134) rotate(0 23.891117441214874 -0.2070045553440707)"><path d="M25.87 -7.87 C29.93 -6.92, 34.91 -4.13, 48.46 -0.08 M25.87 -7.87 C31.85 -6.01, 38.37 -3.79, 48.46 -0.08" stroke="#1e1e1e" stroke-width="2" fill="none"></path></g></g><mask></mask><g transform="translate(38.50875562569456 693.0683141400641) rotate(0 327.42187499999994 23)"><text x="327.421875" y="0" font-family="Helvetica, Segoe UI Emoji" font-size="20px" fill="#1e1e1e" text-anchor="middle" style="white-space: pre;" direction="ltr" dominant-baseline="text-before-edge">- env determination is based on branch name in which codes are changed</text><text x="327.421875" y="23" font-family="Helvetica, Segoe UI Emoji" font-size="20px" fill="#1e1e1e" text-anchor="middle" style="white-space: pre;" direction="ltr" dominant-baseline="text-before-edge"></text></g><g transform="translate(39.08712906641256 742.110400831273) rotate(0 455.82519531250006 23)"><text x="0" y="0" font-family="Helvetica, Segoe UI Emoji" font-size="20px" fill="#1e1e1e" text-anchor="start" style="white-space: pre;" direction="ltr" dominant-baseline="text-before-edge">- Netlify put all configuration together in file involving env variable, build and deploy process and so on, </text><text x="0" y="23" font-family="Helvetica, Segoe UI Emoji" font-size="20px" fill="#1e1e1e" text-anchor="start" style="white-space: pre;" direction="ltr" dominant-baseline="text-before-edge">Most other tools separetes and put them in different place</text></g><g transform="translate(39.80874608155568 819.5677736567649) rotate(0 495.2294921875 11.5)"><text x="0" y="0" font-family="Helvetica, Segoe UI Emoji" font-size="20px" fill="#1e1e1e" text-anchor="start" style="white-space: pre;" direction="ltr" dominant-baseline="text-before-edge">- for sensitive env varialbe setting, have to configure in Netlify UI which like some secret protection tool like vault</text></g><g transform="translate(36.86022892221274 873.8996132912652) rotate(0 556.9677734375 23.000000000000057)"><text x="0" y="0" font-family="Helvetica, Segoe UI Emoji" font-size="20px" fill="#1e1e1e" text-anchor="start" style="white-space: pre;" direction="ltr" dominant-baseline="text-before-edge">- plugins aims to integrate with other services that can be split into two types, one is buildingtime plugin working on build stage</text><text x="0" y="23" font-family="Helvetica, Segoe UI Emoji" font-size="20px" fill="#1e1e1e" text-anchor="start" style="white-space: pre;" direction="ltr" dominant-baseline="text-before-edge">  another is runtime plugin working on runtime stage that makes App using third-part services</text></g></svg>