<svg version="1.1" xmlns="http://www.w3.org/2000/svg" viewBox="0 0 1577.198753618571 945.9798629379333" width="4731.596260855713" height="2837.9395888137997">
  <!-- svg-source:excalidraw -->
  
  <defs>
    <style class="style-fonts">
      @font-face {
        font-family: "Virgil";
        src: url("https://excalidraw.com/Virgil.woff2");
      }
      @font-face {
        font-family: "Cascadia";
        src: url("https://excalidraw.com/Cascadia.woff2");
      }
      @font-face {
        font-family: "Assistant";
        src: url("https://excalidraw.com/Assistant-Regular.woff2");
      }
    </style>
    
  </defs>
  <rect x="0" y="0" width="1577.198753618571" height="945.9798629379333" fill="#ffffff"></rect><g stroke-linecap="round" transform="translate(10 507.6340058283206) rotate(0 586.6811746799116 214.17292855480633)"><path d="M32 0 C272.76 3.37, 513.21 3.98, 1141.36 0 M1141.36 0 C1162.19 -0.29, 1171.5 9.37, 1173.36 32 M1173.36 32 C1171.91 170.06, 1173.18 306.8, 1173.36 396.35 M1173.36 396.35 C1174.76 416.93, 1162.31 430.21, 1141.36 428.35 M1141.36 428.35 C805.88 426.08, 472.26 425.88, 32 428.35 M32 428.35 C9.95 430.03, -0.97 416.78, 0 396.35 M0 396.35 C1.04 259.28, 2.66 122.26, 0 32 M0 32 C1.48 10.54, 9.46 0.24, 32 0" stroke="#1e1e1e" stroke-width="2.5" fill="none" stroke-dasharray="8 10"></path></g><g transform="translate(32.32355572761651 10) rotate(0 147.2101593017578 27.445805230772976)"><text x="0" y="0" font-family="Helvetica, Segoe UI Emoji" font-size="47.73183518395309px" fill="#1e1e1e" text-anchor="start" style="white-space: pre;" direction="ltr" dominant-baseline="text-before-edge">what Netlify is</text></g><g transform="translate(36.15355782917027 542.1926253201768) rotate(0 102.2802734375 11.5)"><text x="0" y="0" font-family="Helvetica, Segoe UI Emoji" font-size="20px" fill="#1e1e1e" text-anchor="start" style="white-space: pre;" direction="ltr" dominant-baseline="text-before-edge">frontend cloud platform</text></g><g stroke-linecap="round" transform="translate(74.74247920036669 640.3356500167051) rotate(0 78.02055249673515 27.448049626918873)"><path d="M13.72 0 C58.92 0.36, 103.95 0.6, 142.32 0 M13.72 0 C48.73 1.64, 82.91 1.23, 142.32 0 M142.32 0 C150.82 -1.11, 154.28 5.61, 156.04 13.72 M142.32 0 C152.47 -1.18, 153.98 4.11, 156.04 13.72 M156.04 13.72 C154.56 19.49, 157.41 27.59, 156.04 41.17 M156.04 13.72 C156.16 23.76, 156.4 33.76, 156.04 41.17 M156.04 41.17 C155.29 52.05, 151.46 55.23, 142.32 54.9 M156.04 41.17 C154.97 50.72, 153.76 54.51, 142.32 54.9 M142.32 54.9 C93.2 54.88, 48.44 54.29, 13.72 54.9 M142.32 54.9 C115.99 54.47, 88.54 53.61, 13.72 54.9 M13.72 54.9 C4.45 53.1, 1.42 50.79, 0 41.17 M13.72 54.9 C3.7 56.74, -2.25 50.15, 0 41.17 M0 41.17 C-0.31 33.1, -1.82 26.78, 0 13.72 M0 41.17 C-0.28 31.82, 0.78 24.8, 0 13.72 M0 13.72 C1.36 5.74, 6.52 0.08, 13.72 0 M0 13.72 C-1.18 2.57, 5.69 -0.34, 13.72 0" stroke="#1e1e1e" stroke-width="2" fill="none"></path></g><g transform="translate(142.76303169710184 656.283699643624) rotate(0 10 11.5)"><text x="10" y="0" font-family="Helvetica, Segoe UI Emoji" font-size="20px" fill="#1e1e1e" text-anchor="middle" style="white-space: pre;" direction="ltr" dominant-baseline="text-before-edge">CI</text></g><g stroke-linecap="round" transform="translate(421.0718727612157 748.3783666076095) rotate(0 92.66289739909257 25.728025380250187)"><path d="M12.86 0 C47.21 0.02, 81.39 0.95, 172.46 0 M12.86 0 C48.13 0.66, 82.85 1.58, 172.46 0 M172.46 0 C180.32 1.25, 184.88 2.79, 185.33 12.86 M172.46 0 C181.73 -1.6, 183.17 4.58, 185.33 12.86 M185.33 12.86 C186.07 23.48, 184.92 32.67, 185.33 38.59 M185.33 12.86 C184.76 20.15, 184.86 25.73, 185.33 38.59 M185.33 38.59 C184.79 46.59, 179.97 50.64, 172.46 51.46 M185.33 38.59 C185.58 49.42, 181.22 50, 172.46 51.46 M172.46 51.46 C113.69 52.83, 53.5 52.95, 12.86 51.46 M172.46 51.46 C132.19 49.47, 92.23 50.61, 12.86 51.46 M12.86 51.46 C3.07 52.1, -0.72 46.55, 0 38.59 M12.86 51.46 C6.44 51.34, 2.13 45.01, 0 38.59 M0 38.59 C-0.03 31.34, 0.96 21.41, 0 12.86 M0 38.59 C-0.76 29.2, 0.95 18.15, 0 12.86 M0 12.86 C0.79 4.82, 3.36 1.76, 12.86 0 M0 12.86 C-2.26 5.45, 5.27 -0.26, 12.86 0" stroke="#1e1e1e" stroke-width="2" fill="none"></path></g><g transform="translate(473.71035609780824 762.6063919878595) rotate(0 40.0244140625 11.5)"><text x="40.0244140625" y="0" font-family="Helvetica, Segoe UI Emoji" font-size="20px" fill="#1e1e1e" text-anchor="middle" style="white-space: pre;" direction="ltr" dominant-baseline="text-before-edge">functions</text></g><g stroke-linecap="round" transform="translate(420.1472056073162 641.8188588907349) rotate(0 88.17749641063165 29.564082139708262)"><path d="M14.78 0 C45.38 -0.22, 73.8 -0.53, 161.57 0 M14.78 0 C45.85 -0.35, 77.38 -1.19, 161.57 0 M161.57 0 C171.07 -1.5, 174.93 5.07, 176.35 14.78 M161.57 0 C171.23 1.11, 177.3 3.38, 176.35 14.78 M176.35 14.78 C178.24 24.63, 178.47 36.32, 176.35 44.35 M176.35 14.78 C176.66 25.75, 175.69 37.59, 176.35 44.35 M176.35 44.35 C178.02 54.54, 172.67 61.1, 161.57 59.13 M176.35 44.35 C175.46 54.96, 171.51 59.82, 161.57 59.13 M161.57 59.13 C111.33 58.63, 61 59.56, 14.78 59.13 M161.57 59.13 C128.99 57.5, 95.46 58.9, 14.78 59.13 M14.78 59.13 C4.25 57.82, -1.67 53.13, 0 44.35 M14.78 59.13 C5.69 59.64, -1.74 53.39, 0 44.35 M0 44.35 C0.54 38.83, 0.03 31.1, 0 14.78 M0 44.35 C0.59 36.82, -0.74 27.3, 0 14.78 M0 14.78 C1.35 6.45, 3.29 0.28, 14.78 0 M0 14.78 C-0.76 7.19, 5.82 -0.1, 14.78 0" stroke="#1e1e1e" stroke-width="2" fill="none"></path></g><g transform="translate(438.83739733044786 659.8829410304431) rotate(0 69.4873046875 11.5)"><text x="69.4873046875" y="0" font-family="Helvetica, Segoe UI Emoji" font-size="20px" fill="#1e1e1e" text-anchor="middle" style="white-space: pre;" direction="ltr" dominant-baseline="text-before-edge">Edge Functions</text></g><g stroke-linecap="round" transform="translate(424.86116167329396 842.3202735263299) rotate(0 112.4338530350368 29.965070877887797)"><path d="M14.98 0 C70.81 0.25, 129.51 -3.69, 209.89 0 M14.98 0 C56.69 -1.55, 96.33 -0.49, 209.89 0 M209.89 0 C221.21 0.26, 223.63 6.23, 224.87 14.98 M209.89 0 C219.38 1.66, 226.68 3.05, 224.87 14.98 M224.87 14.98 C225.1 23.94, 226.6 34.85, 224.87 44.95 M224.87 14.98 C223.59 23.24, 224.61 33.47, 224.87 44.95 M224.87 44.95 C226.25 55.1, 220.23 58.05, 209.89 59.93 M224.87 44.95 C225.8 54.98, 220.35 60.99, 209.89 59.93 M209.89 59.93 C161.68 58.25, 108.5 57.76, 14.98 59.93 M209.89 59.93 C164.91 57.61, 119.98 57.78, 14.98 59.93 M14.98 59.93 C6.39 60.65, -1.55 54.25, 0 44.95 M14.98 59.93 C5.59 58.75, -1.68 55.96, 0 44.95 M0 44.95 C-0.47 32.6, -1.1 20.96, 0 14.98 M0 44.95 C-0.67 34.5, 0.13 23.6, 0 14.98 M0 14.98 C-1.83 5.94, 6.46 -1.86, 14.98 0 M0 14.98 C2.21 5.83, 6.22 0.81, 14.98 0" stroke="#1e1e1e" stroke-width="2" fill="none"></path></g><g transform="translate(438.35946783333077 860.7853444042178) rotate(0 98.935546875 11.5)"><text x="98.935546875" y="0" font-family="Helvetica, Segoe UI Emoji" font-size="20px" fill="#1e1e1e" text-anchor="middle" style="white-space: pre;" direction="ltr" dominant-baseline="text-before-edge">Environment variables</text></g><g stroke-linecap="round" transform="translate(703.3272503386257 639.2697075212416) rotate(0 82.79506381444986 27.5172295985617)"><path d="M13.76 0 C43.91 0.05, 74.41 -2.47, 151.83 0 M13.76 0 C53.37 0.44, 92.49 -0.04, 151.83 0 M151.83 0 C162.5 0.07, 164.66 3.86, 165.59 13.76 M151.83 0 C163.14 1.93, 164.93 4.28, 165.59 13.76 M165.59 13.76 C163.87 21.82, 164.07 28.53, 165.59 41.28 M165.59 13.76 C165.44 23.05, 166.35 31.86, 165.59 41.28 M165.59 41.28 C164.95 49.11, 159.79 53.93, 151.83 55.03 M165.59 41.28 C166.28 51.48, 160.29 54.57, 151.83 55.03 M151.83 55.03 C116.84 55.91, 77.37 54.29, 13.76 55.03 M151.83 55.03 C110.04 56.77, 68.79 54.98, 13.76 55.03 M13.76 55.03 C4.67 55.42, 1.75 52.2, 0 41.28 M13.76 55.03 C5.52 56.72, -2.04 52.18, 0 41.28 M0 41.28 C-1.12 30.53, 1.6 22.08, 0 13.76 M0 41.28 C-0.19 35.05, 0.74 28.02, 0 13.76 M0 13.76 C-0.43 3.16, 4.22 1.36, 13.76 0 M0 13.76 C1.23 4.48, 5.25 -0.11, 13.76 0" stroke="#1e1e1e" stroke-width="2" fill="none"></path></g><g transform="translate(761.1223141530756 655.2869371198033) rotate(0 25.00000000000003 11.5)"><text x="25" y="0" font-family="Helvetica, Segoe UI Emoji" font-size="20px" fill="#1e1e1e" text-anchor="middle" style="white-space: pre;" direction="ltr" dominant-baseline="text-before-edge">forms</text></g><g stroke-linecap="round" transform="translate(11.768540167231322 173.93576058095482) rotate(0 572.0986865484532 101.63898353539344)"><path d="M32 0 C256.79 0.02, 481.04 -0.48, 1112.2 0 M1112.2 0 C1135.38 -1.11, 1143.1 10.02, 1144.2 32 M1144.2 32 C1143.05 84.92, 1141.06 139.07, 1144.2 171.28 M1144.2 171.28 C1142.76 193.18, 1132.51 204.6, 1112.2 203.28 M1112.2 203.28 C690.56 202.38, 269.18 202.86, 32 203.28 M32 203.28 C11.73 204.7, -0.27 191.77, 0 171.28 M0 171.28 C1.28 122, 1.54 74.39, 0 32 M0 32 C1.86 10.92, 11.56 1.84, 32 0" stroke="#1e1e1e" stroke-width="2.5" fill="none" stroke-dasharray="8 10"></path></g><g transform="translate(34.69808688773901 194.42645516682728) rotate(0 43.3544921875 11.5)"><text x="0" y="0" font-family="Helvetica, Segoe UI Emoji" font-size="20px" fill="#1e1e1e" text-anchor="start" style="white-space: pre;" direction="ltr" dominant-baseline="text-before-edge">interfaces</text></g><g stroke-linecap="round" transform="translate(47.72390418230384 240.70554817229413) rotate(0 80.68480136075266 28.112578221953868)"><path d="M14.06 0 C44.72 -0.42, 73.81 -0.39, 147.31 0 M14.06 0 C59.37 0.76, 105.82 -0.22, 147.31 0 M147.31 0 C154.94 -1.42, 161.94 5.57, 161.37 14.06 M147.31 0 C157.76 0.43, 163.52 6.93, 161.37 14.06 M161.37 14.06 C162.49 25.03, 161.7 33.12, 161.37 42.17 M161.37 14.06 C161.97 24.32, 161.23 34.66, 161.37 42.17 M161.37 42.17 C163.07 50.21, 157.41 55.45, 147.31 56.23 M161.37 42.17 C159.92 50.88, 158.36 56.83, 147.31 56.23 M147.31 56.23 C112 53.97, 73.79 55.98, 14.06 56.23 M147.31 56.23 C120.81 54.98, 93.95 55.06, 14.06 56.23 M14.06 56.23 C6.65 56.99, 0.94 51.1, 0 42.17 M14.06 56.23 C2.46 55.54, -1.28 50.73, 0 42.17 M0 42.17 C-0.73 32.97, 1.92 24.61, 0 14.06 M0 42.17 C-0.33 34.72, -0.62 28.18, 0 14.06 M0 14.06 C0.44 2.84, 6.19 -0.68, 14.06 0 M0 14.06 C1.15 5.84, 5.72 1.57, 14.06 0" stroke="#1e1e1e" stroke-width="2" fill="none"></path></g><g transform="translate(82.2856586680565 257.3181263942481) rotate(0 46.123046875 11.5)"><text x="46.123046875" y="0" font-family="Helvetica, Segoe UI Emoji" font-size="20px" fill="#1e1e1e" text-anchor="middle" style="white-space: pre;" direction="ltr" dominant-baseline="text-before-edge">Netlify CLI</text></g><g stroke-linecap="round" transform="translate(293.28948032839367 238.42825769224237) rotate(0 100.26346218526453 25.723378964244375)"><path d="M12.86 0 C51.54 1.63, 91.91 1.83, 187.67 0 M12.86 0 C61.68 -0.07, 112.91 0.5, 187.67 0 M187.67 0 C194.91 0.54, 201.49 3.48, 200.53 12.86 M187.67 0 C194.66 -2.2, 200.58 4.92, 200.53 12.86 M200.53 12.86 C200.56 22.14, 200.07 32.88, 200.53 38.59 M200.53 12.86 C200.91 21.37, 201.4 29.59, 200.53 38.59 M200.53 38.59 C202.4 47.29, 196.04 52.77, 187.67 51.45 M200.53 38.59 C199.56 48.9, 195.84 49.48, 187.67 51.45 M187.67 51.45 C149.13 49.25, 111.03 50.15, 12.86 51.45 M187.67 51.45 C147.65 50.3, 106.99 49.89, 12.86 51.45 M12.86 51.45 C4.65 51.03, 0.37 49.06, 0 38.59 M12.86 51.45 C3.68 53.23, 1.52 46.89, 0 38.59 M0 38.59 C0.62 31.39, -1.48 20.3, 0 12.86 M0 38.59 C1.16 33.63, -0.58 27.17, 0 12.86 M0 12.86 C-1.56 3.5, 5.29 0.25, 12.86 0 M0 12.86 C-1.37 3.94, 4.37 -0.3, 12.86 0" stroke="#1e1e1e" stroke-width="2" fill="none"></path></g><g transform="translate(317.4250128261582 252.65163665648674) rotate(0 76.1279296875 11.5)"><text x="76.1279296875" y="0" font-family="Helvetica, Segoe UI Emoji" font-size="20px" fill="#1e1e1e" text-anchor="middle" style="white-space: pre;" direction="ltr" dominant-baseline="text-before-edge">Netlify REST API</text></g><g stroke-linecap="round" transform="translate(77.80413329217993 747.7725711403866) rotate(0 77.1159287059981 25.781838773468507)"><path d="M12.89 0 C60.61 1.81, 106.03 1.35, 141.34 0 M12.89 0 C60.69 1.14, 106.64 0.46, 141.34 0 M141.34 0 C149.3 0, 154.64 3.45, 154.23 12.89 M141.34 0 C150.86 0.46, 155.49 4.64, 154.23 12.89 M154.23 12.89 C155.07 22.13, 156.11 30.04, 154.23 38.67 M154.23 12.89 C153.74 20.31, 154.69 27.51, 154.23 38.67 M154.23 38.67 C155.02 48.16, 151.6 49.74, 141.34 51.56 M154.23 38.67 C154.62 46.17, 150.4 49.93, 141.34 51.56 M141.34 51.56 C116.18 50.68, 91.12 52.19, 12.89 51.56 M141.34 51.56 C113.11 52.23, 84.28 52.62, 12.89 51.56 M12.89 51.56 C3.71 52.73, 1.02 46.34, 0 38.67 M12.89 51.56 C3.98 52.03, -1.36 47.39, 0 38.67 M0 38.67 C2.02 32.7, -1.29 23.83, 0 12.89 M0 38.67 C-0.66 32.42, -0.45 24.13, 0 12.89 M0 12.89 C-0.65 3.74, 2.67 1.74, 12.89 0 M0 12.89 C1.76 5.17, 4.77 0.8, 12.89 0" stroke="#1e1e1e" stroke-width="2" fill="none"></path></g><g transform="translate(140.47670262317803 762.0544099138551) rotate(0 14.443359375 11.5)"><text x="14.443359375" y="0" font-family="Helvetica, Segoe UI Emoji" font-size="20px" fill="#1e1e1e" text-anchor="middle" style="white-space: pre;" direction="ltr" dominant-baseline="text-before-edge">CD</text></g><g stroke-linecap="round" transform="translate(579.3025633365351 244.34566587247218) rotate(0 89.71700891390878 25.29010826388037)"><path d="M12.65 0 C68.72 -1.57, 129.49 -0.22, 166.79 0 M12.65 0 C48.82 -0.52, 82.69 -0.04, 166.79 0 M166.79 0 C173.55 -1.77, 181.4 3.43, 179.43 12.65 M166.79 0 C173.47 2.04, 180.21 2.08, 179.43 12.65 M179.43 12.65 C181.49 17.74, 179.15 26.16, 179.43 37.94 M179.43 12.65 C179.95 20.16, 179.26 27.74, 179.43 37.94 M179.43 37.94 C180.07 46.08, 174.87 51.45, 166.79 50.58 M179.43 37.94 C180.47 45.78, 173.66 52.79, 166.79 50.58 M166.79 50.58 C130.57 49.7, 93.14 50.28, 12.65 50.58 M166.79 50.58 C125.75 50.57, 84.4 51.21, 12.65 50.58 M12.65 50.58 C4.11 51.03, 1.99 48.26, 0 37.94 M12.65 50.58 C2.69 49.32, -2 47.9, 0 37.94 M0 37.94 C-0.25 31.06, -1.48 27.44, 0 12.65 M0 37.94 C0.85 29.41, -0.24 20.99, 0 12.65 M0 12.65 C-0.02 2.3, 4.25 -0.15, 12.65 0 M0 12.65 C1 4.92, 5.96 -1.04, 12.65 0" stroke="#1e1e1e" stroke-width="2" fill="none"></path></g><g transform="translate(644.0049238129438 258.13577413635244) rotate(0 25.0146484375 11.5)"><text x="25.0146484375" y="0" font-family="Helvetica, Segoe UI Emoji" font-size="20px" fill="#1e1e1e" text-anchor="middle" style="white-space: pre;" direction="ltr" dominant-baseline="text-before-edge">portal</text></g><g stroke-linecap="round" transform="translate(934.8532401763737 637.6994011236511) rotate(0 98.19711291813258 29.74320200166278)"><path d="M14.87 0 C68.2 0.02, 122.8 1.39, 181.52 0 M14.87 0 C51.58 -1.55, 88.33 0.14, 181.52 0 M181.52 0 C193 1.08, 195.29 4.94, 196.39 14.87 M181.52 0 C191.33 -0.02, 197.78 3.8, 196.39 14.87 M196.39 14.87 C197.07 22.25, 195.12 31.07, 196.39 44.61 M196.39 14.87 C195.78 26.37, 196.24 38.3, 196.39 44.61 M196.39 44.61 C195.04 55.29, 190.12 58.77, 181.52 59.49 M196.39 44.61 C198.61 55.25, 190.27 59.69, 181.52 59.49 M181.52 59.49 C122 58.47, 62.51 58.81, 14.87 59.49 M181.52 59.49 C134.35 58.62, 88.88 59.13, 14.87 59.49 M14.87 59.49 C6.94 60.13, 1.91 53.14, 0 44.61 M14.87 59.49 C6.57 59.63, -1.81 52.96, 0 44.61 M0 44.61 C1.74 36.03, -0.24 26.96, 0 14.87 M0 44.61 C0.04 33.88, 0.36 25.33, 0 14.87 M0 14.87 C1.1 6.93, 3.82 -1.62, 14.87 0 M0 14.87 C0.56 6.01, 5.78 1.97, 14.87 0" stroke="#1e1e1e" stroke-width="2" fill="none"></path></g><g transform="translate(960.2525015320062 655.942603125314) rotate(0 72.7978515625 11.5)"><text x="72.7978515625" y="0" font-family="Helvetica, Segoe UI Emoji" font-size="20px" fill="#1e1e1e" text-anchor="middle" style="white-space: pre;" direction="ltr" dominant-baseline="text-before-edge">Domains &amp; DNS</text></g><g stroke-linecap="round" transform="translate(941.715358873666 738.1624466160436) rotate(0 93.41634564161245 30)"><path d="M15 0 C67.27 -0.49, 122.2 -0.18, 171.83 0 M15 0 C59.41 0.22, 104.97 0.48, 171.83 0 M171.83 0 C182.73 -1.53, 185.05 4.29, 186.83 15 M171.83 0 C183.33 -1.14, 185.2 3.29, 186.83 15 M186.83 15 C185.22 24.95, 186.78 35.7, 186.83 45 M186.83 15 C186.22 22.16, 187.46 28.55, 186.83 45 M186.83 45 C187.6 56.21, 183.06 59.51, 171.83 60 M186.83 45 C184.82 56.66, 183.84 62.11, 171.83 60 M171.83 60 C119.9 58.95, 67.89 59.34, 15 60 M171.83 60 C120.4 57.93, 67.89 59.08, 15 60 M15 60 C5.74 59.42, 1.93 54.37, 0 45 M15 60 C7.08 60.18, 1.33 54.06, 0 45 M0 45 C-1.64 34.66, -0.68 25.1, 0 15 M0 45 C0.41 36.39, 0.8 28.92, 0 15 M0 15 C0.44 5.45, 5.24 1.88, 15 0 M0 15 C-0.8 5.81, 3.45 1.75, 15 0" stroke="#1e1e1e" stroke-width="2" fill="none"></path></g><g transform="translate(952.8953763902784 756.6624466160436) rotate(0 82.236328125 11.5)"><text x="82.236328125" y="0" font-family="Helvetica, Segoe UI Emoji" font-size="20px" fill="#1e1e1e" text-anchor="middle" style="white-space: pre;" direction="ltr" dominant-baseline="text-before-edge">HTTPS (SSL/TLS)</text></g><g stroke-linecap="round" transform="translate(839.6976772494284 246.085490532447) rotate(0 108.8249543914211 22.613165269859678)"><path d="M11.31 0 C75.34 0.78, 140.82 -1.01, 206.34 0 M11.31 0 C63.3 -1.29, 113.29 -1.14, 206.34 0 M206.34 0 C215.56 0.18, 218.82 5.62, 217.65 11.31 M206.34 0 C214.86 1.94, 218.48 2.14, 217.65 11.31 M217.65 11.31 C219.48 20.39, 219.47 28.32, 217.65 33.92 M217.65 11.31 C217 19.04, 217.19 27.02, 217.65 33.92 M217.65 33.92 C215.83 40.36, 214.92 45.7, 206.34 45.23 M217.65 33.92 C219.08 43.5, 214.92 46.39, 206.34 45.23 M206.34 45.23 C154.92 44.19, 108.77 44.06, 11.31 45.23 M206.34 45.23 C130.86 44.11, 55.44 43.3, 11.31 45.23 M11.31 45.23 C5.76 45.57, -1.9 40.21, 0 33.92 M11.31 45.23 C2.52 43.01, -2.27 41.95, 0 33.92 M0 33.92 C0.54 29.31, 0.99 24.79, 0 11.31 M0 33.92 C1.1 24.9, -0.55 17.32, 0 11.31 M0 11.31 C-1.98 4.05, 4.93 -1.48, 11.31 0 M0 11.31 C1.95 5.27, 1.55 -0.76, 11.31 0" stroke="#1e1e1e" stroke-width="2" fill="none"></path></g><g transform="translate(897.3995847658495 257.1986558023066) rotate(0 51.123046875 11.5)"><text x="51.123046875" y="0" font-family="Helvetica, Segoe UI Emoji" font-size="20px" fill="#1e1e1e" text-anchor="middle" style="white-space: pre;" direction="ltr" dominant-baseline="text-before-edge">Netlify SDK</text></g><g stroke-linecap="round" transform="translate(1258.629598556851 168.68026928480208) rotate(0 154.2845775308599 205.76504475194042)"><path d="M32 0 C125.08 0.67, 217.93 3.14, 276.57 0 M276.57 0 C299.77 1.51, 310 11.3, 308.57 32 M308.57 32 C308.63 134.04, 308.51 239.29, 308.57 379.53 M308.57 379.53 C307.09 400.44, 299.49 411.36, 276.57 411.53 M276.57 411.53 C180.46 414.56, 79.8 413.25, 32 411.53 M32 411.53 C10.01 413.2, 1.29 399.21, 0 379.53 M0 379.53 C-1.43 295.05, -1.65 211.93, 0 32 M0 32 C-1.42 9.29, 12.35 0.32, 32 0" stroke="#1e1e1e" stroke-width="2.5" fill="none" stroke-dasharray="8 10"></path></g><g transform="translate(1278.2876432469795 210.78396531872295) rotate(0 46.69921875 11.5)"><text x="0" y="0" font-family="Helvetica, Segoe UI Emoji" font-size="20px" fill="#1e1e1e" text-anchor="start" style="white-space: pre;" direction="ltr" dominant-baseline="text-before-edge">integration</text></g><g stroke-linecap="round" transform="translate(1284.0455548464072 261.7918950688802) rotate(0 124.36007927901028 23.399168793152967)"><path d="M11.7 0 C100.37 0.09, 190.93 -0.99, 237.02 0 M11.7 0 C75.27 -0.26, 138.12 -1.21, 237.02 0 M237.02 0 C245.66 -0.69, 248.29 3.63, 248.72 11.7 M237.02 0 C243.46 0.19, 249.56 4.28, 248.72 11.7 M248.72 11.7 C248.34 18.24, 248.45 20.54, 248.72 35.1 M248.72 11.7 C249.67 20.69, 248.24 28.89, 248.72 35.1 M248.72 35.1 C247.55 42.98, 243.44 46.24, 237.02 46.8 M248.72 35.1 C246.57 42.11, 244.41 47.63, 237.02 46.8 M237.02 46.8 C163.11 46.38, 91.79 47.94, 11.7 46.8 M237.02 46.8 C164.24 49.37, 92.78 47.87, 11.7 46.8 M11.7 46.8 C2.01 47.3, 1.53 40.94, 0 35.1 M11.7 46.8 C3.99 44.74, 1.77 42.85, 0 35.1 M0 35.1 C-0.31 25.36, 0.02 20.26, 0 11.7 M0 35.1 C-0.46 26.28, -0.14 17.53, 0 11.7 M0 11.7 C1.16 3.68, 4.56 -1.19, 11.7 0 M0 11.7 C-2.25 2.8, 3.86 -2.3, 11.7 0" stroke="#1e1e1e" stroke-width="2" fill="none"></path></g><g transform="translate(1329.4700872504175 273.69106386203316) rotate(0 78.935546875 11.5)"><text x="78.935546875" y="0" font-family="Helvetica, Segoe UI Emoji" font-size="20px" fill="#1e1e1e" text-anchor="middle" style="white-space: pre;" direction="ltr" dominant-baseline="text-before-edge">Sentry Integration</text></g><g stroke-linecap="round" transform="translate(1293.3682696904918 353.7372400667525) rotate(0 124.40623975174844 21.775261583468478)"><path d="M10.89 0 C91.49 2.15, 175.67 2.44, 237.92 0 M10.89 0 C71.45 -0.15, 132.1 -0.2, 237.92 0 M237.92 0 C244.28 -1.34, 250.37 2.76, 248.81 10.89 M237.92 0 C244.28 0.03, 249.9 3.21, 248.81 10.89 M248.81 10.89 C248.82 15.33, 247.3 23.7, 248.81 32.66 M248.81 10.89 C249.35 18.07, 249.3 24.03, 248.81 32.66 M248.81 32.66 C250.26 41.04, 246.66 44.99, 237.92 43.55 M248.81 32.66 C247.78 40.43, 245.05 42.71, 237.92 43.55 M237.92 43.55 C184.29 42.03, 128.86 40.75, 10.89 43.55 M237.92 43.55 C154.85 42.96, 73.09 41.8, 10.89 43.55 M10.89 43.55 C5.14 44.07, 0.84 39.87, 0 32.66 M10.89 43.55 C2.33 42.11, -1.71 38, 0 32.66 M0 32.66 C-1.3 23.51, 0.55 16.62, 0 10.89 M0 32.66 C-0.53 29.08, -0.69 23.64, 0 10.89 M0 10.89 C-0.49 2.19, 3.88 -1.02, 10.89 0 M0 10.89 C-1.79 4.86, 2.36 -0.19, 10.89 0" stroke="#1e1e1e" stroke-width="2" fill="none"></path></g><g transform="translate(1342.7354469422403 364.0125016502209) rotate(0 75.0390625 11.5)"><text x="75.0390625" y="0" font-family="Helvetica, Segoe UI Emoji" font-size="20px" fill="#1e1e1e" text-anchor="middle" style="white-space: pre;" direction="ltr" dominant-baseline="text-before-edge">Email Integration</text></g><g transform="translate(1388.9576195862467 431.170279072968) rotate(0 8.3349609375 11.5)"><text x="0" y="0" font-family="Helvetica, Segoe UI Emoji" font-size="20px" fill="#1e1e1e" text-anchor="start" style="white-space: pre;" direction="ltr" dominant-baseline="text-before-edge">...</text></g><g stroke-linecap="round"><g transform="translate(1066.0083839922781 270.1164504274693) rotate(0 94.91243085803751 0.5610319561593542)"><path d="M-0.81 -0.85 C30.53 -0.84, 156.99 0.56, 188.78 1.05 M0.96 1.32 C32.6 2.04, 159.56 2.72, 190.95 2.55" stroke="#1e1e1e" stroke-width="2" fill="none"></path></g><g transform="translate(1066.0083839922781 270.1164504274693) rotate(0 94.91243085803751 0.5610319561593542)"><path d="M162.75 12.78 C171.43 7.54, 182.9 5.82, 190.95 2.55 M162.75 12.78 C174.45 8.3, 184.53 4.28, 190.95 2.55" stroke="#1e1e1e" stroke-width="2" fill="none"></path></g><g transform="translate(1066.0083839922781 270.1164504274693) rotate(0 94.91243085803751 0.5610319561593542)"><path d="M162.77 -7.74 C171.61 -5.57, 183.08 0.12, 190.95 2.55 M162.77 -7.74 C174.38 -4.4, 184.46 -0.59, 190.95 2.55" stroke="#1e1e1e" stroke-width="2" fill="none"></path></g></g><mask></mask><g stroke-linecap="round" transform="translate(77.77097063676581 834.6795005389042) rotate(0 88.21648986260237 30)"><path d="M15 0 C54.86 0.87, 91.01 -0.09, 161.43 0 M15 0 C62.21 0.29, 107.89 0.78, 161.43 0 M161.43 0 C171.94 0.76, 175.2 6.43, 176.43 15 M161.43 0 C172.73 -1.29, 177.4 4.14, 176.43 15 M176.43 15 C176.26 22.11, 176.27 28.23, 176.43 45 M176.43 15 C175.7 23.52, 175.61 31.12, 176.43 45 M176.43 45 C177.75 53.41, 173.41 61.54, 161.43 60 M176.43 45 C178.63 56.89, 173.26 61.42, 161.43 60 M161.43 60 C129.14 59.96, 97.24 58.58, 15 60 M161.43 60 C120.97 58.41, 79.93 58.28, 15 60 M15 60 C6.18 60.48, 0.21 56.29, 0 45 M15 60 C4.93 57.96, 0.75 54.49, 0 45 M0 45 C-0.07 33.38, 0.53 22.49, 0 15 M0 45 C0.63 34.52, -0.7 23.38, 0 15 M0 15 C1.72 4.99, 3.03 1.86, 15 0 M0 15 C1.79 6.26, 6.18 1.25, 15 0" stroke="#1e1e1e" stroke-width="2" fill="none"></path></g><g transform="translate(91.51480424936818 841.6795005389042) rotate(0 74.47265625 23)"><text x="74.47265625" y="0" font-family="Helvetica, Segoe UI Emoji" font-size="20px" fill="#1e1e1e" text-anchor="middle" style="white-space: pre;" direction="ltr" dominant-baseline="text-before-edge">Deploy Previews</text><text x="74.47265625" y="23" font-family="Helvetica, Segoe UI Emoji" font-size="20px" fill="#1e1e1e" text-anchor="middle" style="white-space: pre;" direction="ltr" dominant-baseline="text-before-edge"></text></g><g stroke-linecap="round"><g transform="translate(549.0409814762518 505.36764809181227) rotate(0 -0.7922278584051128 -61.35273311019023)"><path d="M-0.77 -0.84 C-0.85 -21.24, -1.01 -101.97, -1.07 -122.41 M1.03 1.33 C0.89 -19.45, -1.31 -103.73, -1.75 -124.38" stroke="#1e1e1e" stroke-width="2" fill="none"></path></g><g transform="translate(549.0409814762518 505.36764809181227) rotate(0 -0.7922278584051128 -61.35273311019023)"><path d="M9.18 -96.45 C5.03 -102.67, 4.18 -109.76, -1.75 -124.38 M9.18 -96.45 C5.91 -103.71, 5.14 -110.35, -1.75 -124.38" stroke="#1e1e1e" stroke-width="2" fill="none"></path></g><g transform="translate(549.0409814762518 505.36764809181227) rotate(0 -0.7922278584051128 -61.35273311019023)"><path d="M-11.34 -95.96 C-10.34 -102.17, -6.05 -109.39, -1.75 -124.38 M-11.34 -95.96 C-9.82 -103.19, -5.82 -109.95, -1.75 -124.38" stroke="#1e1e1e" stroke-width="2" fill="none"></path></g></g><mask></mask></svg>